<svg width="12" height="16" viewBox="0 0 12 16" fill="none" xmlns="http://www.w3.org/2000/svg">
<path d="M8.24095 2.81106C7.73842 3.4231 6.93435 3.90583 6.13029 3.83687C6.02979 3.00933 6.42344 2.13006 6.8841 1.58698C7.38664 0.957712 8.26608 0.509456 8.97801 0.474976C9.06177 1.337 8.73513 2.18178 8.24095 2.81106ZM8.96961 4.00066C7.80543 3.93169 6.80872 4.68165 6.25592 4.68165C5.69475 4.68165 4.84882 4.03514 3.92749 4.05238C2.72977 4.06962 1.61581 4.76786 1.00439 5.87986C-0.251964 8.1039 0.677734 11.3969 1.8922 13.2071C2.48687 14.1036 3.19881 15.0863 4.13688 15.0518C5.02471 15.0173 5.37648 14.457 6.44856 14.457C7.52903 14.457 7.83892 15.0518 8.77697 15.0345C9.74857 15.0173 10.36 14.1381 10.9546 13.2416C11.6331 12.2244 11.9095 11.233 11.9262 11.1813C11.9095 11.1641 10.0501 10.4313 10.0334 8.22454C10.0166 6.37984 11.4991 5.50058 11.5661 5.44886C10.7285 4.17306 9.42193 4.03514 8.96961 4.00066Z" fill="#1D1D1B"/>
</svg>
