<svg width="17" height="16" viewBox="0 0 17 16" fill="none" xmlns="http://www.w3.org/2000/svg">
<path d="M2.47415 2.26881C2.2932 2.46374 2.20169 2.71322 2.21821 2.96655V13.9716C2.20262 14.2249 2.29402 14.474 2.47415 14.6694L2.51604 14.707L9.37983 8.54011V8.39387L2.51604 2.2312L2.47415 2.26881Z" fill="url(#paint0_linear_1_784)"/>
<path d="M11.6683 10.5908L9.37878 8.53522V8.38898L11.6683 6.33752L11.7194 6.36259L14.4324 7.74553C15.2095 8.13826 15.2095 8.78586 14.4324 9.18282L11.7194 10.5657L11.6683 10.5908Z" fill="url(#paint1_linear_1_784)"/>
<path d="M11.7188 10.5641L9.39213 8.4751L2.47253 14.6629C2.63203 14.7805 2.83061 14.8473 3.03701 14.8526C3.2434 14.8579 3.4459 14.8014 3.61262 14.6921L11.7049 10.5641" fill="url(#paint2_linear_1_784)"/>
<path d="M11.7188 6.36173L3.61262 2.22959C3.44769 2.11575 3.24385 2.05683 3.03591 2.06293C2.82797 2.06903 2.62885 2.13975 2.47253 2.26302L9.37821 8.46328L11.7188 6.36173Z" fill="url(#paint3_linear_1_784)"/>
<path opacity="0.1" d="M11.6692 10.5187L3.61413 14.6216C3.45345 14.7291 3.25843 14.7872 3.05804 14.7872C2.85767 14.7872 2.66264 14.7291 2.50196 14.6216L2.46008 14.6592L2.50196 14.6968C2.66264 14.8043 2.85767 14.8624 3.05804 14.8624C3.25843 14.8624 3.45345 14.8043 3.61413 14.6968L11.7064 10.5688L11.6692 10.5187Z" fill="#1D1D1B"/>
<path opacity="0.07" d="M2.47341 14.5957C2.2934 14.3989 2.20225 14.1484 2.21807 13.8938V13.9648C2.20251 14.218 2.2937 14.4672 2.47341 14.6626L2.51519 14.625L2.47341 14.5957Z" fill="#1D1D1B"/>
<path opacity="0.07" d="M14.4336 9.10389L11.6694 10.516L11.7206 10.562L14.4336 9.16237C14.5927 9.09949 14.7304 8.99989 14.8326 8.87365C14.9348 8.74741 14.9978 8.59901 15.0153 8.44373C14.9835 8.58725 14.9142 8.72197 14.813 8.83677C14.7119 8.95157 14.5818 9.04309 14.4336 9.10389Z" fill="#1D1D1B"/>
<path opacity="0.3" d="M3.6155 2.3041L14.4347 7.81502C14.5816 7.8743 14.7108 7.96382 14.8118 8.07632C14.9128 8.18888 14.9829 8.3212 15.0164 8.46264C14.9999 8.30704 14.9372 8.15832 14.8349 8.03192C14.7326 7.90553 14.5944 7.80609 14.4347 7.74399L3.6155 2.2289C2.85235 1.83616 2.21948 2.16205 2.21948 2.96006V3.0311C2.21948 2.23726 2.85235 1.90718 3.6155 2.3041Z" fill="white"/>
<defs>
<linearGradient id="paint0_linear_1_784" x1="8.77487" y1="2.84956" x2="0.471116" y2="12.098" gradientUnits="userSpaceOnUse">
<stop stop-color="#008EFF"/>
<stop offset="0.01" stop-color="#008FFF"/>
<stop offset="0.26" stop-color="#00ACFF"/>
<stop offset="0.51" stop-color="#00C0FF"/>
<stop offset="0.76" stop-color="#00CDFF"/>
<stop offset="1" stop-color="#00D1FF"/>
</linearGradient>
<linearGradient id="paint1_linear_1_784" x1="14.5254" y1="8.46418" x2="1.11437" y2="8.46418" gradientUnits="userSpaceOnUse">
<stop stop-color="#FFD800"/>
<stop offset="1" stop-color="#FF8A00"/>
</linearGradient>
<linearGradient id="paint2_linear_1_784" x1="10.4485" y1="9.60318" x2="-0.808772" y2="22.1411" gradientUnits="userSpaceOnUse">
<stop stop-color="#FF3A44"/>
<stop offset="1" stop-color="#B11162"/>
</linearGradient>
<linearGradient id="paint3_linear_1_784" x1="0.732158" y1="-1.40117" x2="5.76305" y2="4.19743" gradientUnits="userSpaceOnUse">
<stop stop-color="#328E71"/>
<stop offset="0.07" stop-color="#2D9571"/>
<stop offset="0.48" stop-color="#15BD74"/>
<stop offset="0.8" stop-color="#06D575"/>
<stop offset="1" stop-color="#00DE76"/>
</linearGradient>
</defs>
</svg>
