<svg width="20" height="20" viewBox="0 0 20 20" fill="none" xmlns="http://www.w3.org/2000/svg">
<path fill-rule="evenodd" clip-rule="evenodd" d="M10.7762 0.8796C10.5461 0.240667 9.63832 0.253179 9.42589 0.898215L7.75018 5.98496C7.65368 6.2779 7.38013 6.47583 7.07178 6.47583H1.53371C0.869265 6.47583 0.564782 7.30375 1.07085 7.73443L5.77719 11.7395C5.99543 11.9252 6.08159 12.2234 5.99603 12.497L4.27961 17.9842C4.07538 18.6371 4.81691 19.176 5.37468 18.7802L9.89239 15.5735C10.1487 15.3916 10.4936 15.3986 10.7423 15.5907L15.1636 19.0056C15.713 19.43 16.4837 18.9001 16.2844 18.235L14.5527 12.4546C14.4695 12.1771 14.5622 11.8768 14.7872 11.6945L19.66 7.74536C20.1828 7.3216 19.8832 6.47583 19.2102 6.47583H13.2942C12.993 6.47583 12.7243 6.28693 12.6222 6.00358L10.7762 0.8796Z" fill="#111111"/>
</svg>
