<?xml version="1.0" standalone="no"?>
<!DOCTYPE svg PUBLIC "-//W3C//DTD SVG 20010904//EN"
 "http://www.w3.org/TR/2001/REC-SVG-20010904/DTD/svg10.dtd">
<svg version="1.0" xmlns="http://www.w3.org/2000/svg"
 width="700.000000pt" height="700.000000pt" viewBox="0 0 700.000000 700.000000"
 preserveAspectRatio="xMidYMid meet">
<metadata>
Created by potrace 1.14, written by Peter Selinger 2001-2017
</metadata>
<g transform="translate(0.000000,700.000000) scale(0.100000,-0.100000)"
fill="#000000" stroke="none">
<path d="M3328 5225 c-2 -2 -30 -6 -63 -10 -83 -9 -127 -15 -147 -21 -10 -3
-30 -7 -45 -10 -16 -3 -36 -7 -45 -10 -9 -3 -25 -6 -35 -8 -42 -9 -193 -66
-253 -96 -342 -172 -569 -451 -717 -884 -29 -86 -57 -184 -49 -174 185 228
346 358 529 426 105 40 175 52 297 52 204 2 370 -54 538 -179 45 -33 176 -153
290 -265 232 -229 312 -299 444 -388 203 -136 457 -226 725 -255 86 -10 378
-10 458 -1 414 47 718 199 954 474 124 144 268 425 326 637 8 28 17 63 21 77
5 16 -13 0 -51 -45 -185 -221 -376 -350 -595 -399 -72 -17 -254 -23 -310 -11
-14 2 -49 9 -77 15 -62 11 -177 55 -215 81 -14 11 -29 19 -33 19 -23 0 -190
145 -370 322 -210 206 -309 294 -422 375 -122 87 -309 172 -474 217 -99 26
-133 33 -264 51 -47 7 -411 15 -417 10z"/>
<path d="M1740 3379 c-118 -15 -138 -18 -207 -34 -489 -112 -827 -420 -1016
-925 -43 -114 -79 -240 -69 -240 4 0 15 13 25 29 25 42 173 191 247 248 109
85 265 161 365 178 172 29 270 26 425 -12 171 -41 295 -129 574 -402 261 -256
307 -297 434 -384 288 -197 586 -282 992 -281 369 1 650 77 905 245 70 47 234
198 290 269 84 107 187 293 242 438 28 76 84 255 80 259 -2 1 -18 -16 -35 -39
-114 -148 -281 -286 -434 -357 -131 -62 -219 -80 -373 -76 -140 3 -153 5 -260
36 -160 48 -273 130 -532 385 -271 267 -324 314 -464 407 -126 83 -323 174
-439 202 -55 14 -174 38 -225 47 -77 13 -440 18 -525 7z"/>
</g>
</svg>
