<svg width="349" height="130" viewBox="0 0 349 130" fill="none" xmlns="http://www.w3.org/2000/svg">
<mask id="mask0_1_950" style="mask-type:luminance" maskUnits="userSpaceOnUse" x="0" y="0" width="349" height="130">
<path d="M348.66 0H0V130H348.66V0Z" fill="white"/>
</mask>
<g mask="url(#mask0_1_950)">
<path d="M274.724 80.687L274.737 80.691C274.737 80.691 274.712 82.949 274.671 83.622C274.634 84.243 274.027 84.863 272.848 85.346L250.49 94.497C248.032 95.503 244.017 95.535 241.523 94.568L230.152 90.158C228.932 89.685 228.302 89.06 228.264 88.428C228.23 87.85 228.315 85.641 228.33 85.332C228.316 84.684 228.923 84.031 230.155 83.526L252.514 74.374C254.972 73.368 258.987 73.336 261.48 74.303L272.852 78.713C274.228 79.247 274.854 79.974 274.724 80.687Z" fill="#D5C8FB"/>
<path d="M274.724 80.687L274.737 80.691C274.737 80.691 274.712 82.949 274.671 83.622C274.634 84.243 274.027 84.863 272.848 85.346L250.49 94.497C248.032 95.503 244.017 95.535 241.523 94.568L230.152 90.158C228.932 89.685 228.302 89.06 228.264 88.428C228.23 87.85 228.315 85.641 228.33 85.332C228.316 84.684 228.923 84.031 230.155 83.526L252.514 74.374C254.972 73.368 258.987 73.336 261.48 74.303L272.852 78.713C274.228 79.247 274.854 79.974 274.724 80.687Z" stroke="#1D1D1B"/>
<path d="M230.22 87.1C227.726 86.133 227.699 84.533 230.156 83.527L252.514 74.375C254.973 73.369 258.987 73.337 261.482 74.304L272.855 78.714C275.347 79.681 275.377 81.281 272.918 82.287L250.56 91.439C248.101 92.445 244.086 92.477 241.592 91.51L230.22 87.1Z" fill="white"/>
<path d="M230.22 87.1C227.726 86.133 227.699 84.533 230.156 83.527L252.514 74.375C254.973 73.369 258.987 73.337 261.482 74.304L272.855 78.714C275.347 79.681 275.377 81.281 272.918 82.287L250.56 91.439C248.101 92.445 244.086 92.477 241.592 91.51L230.22 87.1Z" stroke="#1D1D1B" stroke-width="0.5"/>
<path d="M247.821 70.083L247.831 70.087C247.831 70.087 247.809 72.345 247.768 73.018C247.731 73.639 247.123 74.259 245.943 74.742L223.585 83.894C221.128 84.9 217.114 84.932 214.62 83.965L203.248 79.555C202.029 79.082 201.398 78.457 201.361 77.825C201.327 77.247 201.412 75.037 201.427 74.728C201.413 74.08 202.02 73.427 203.252 72.922L225.61 63.77C228.069 62.764 232.081 62.732 234.575 63.699L245.949 68.109C247.325 68.643 247.951 69.37 247.821 70.083Z" fill="#D5C8FB"/>
<path d="M247.821 70.083L247.831 70.087C247.831 70.087 247.809 72.345 247.768 73.018C247.731 73.639 247.123 74.259 245.943 74.742L223.585 83.894C221.128 84.9 217.114 84.932 214.62 83.965L203.248 79.555C202.029 79.082 201.398 78.457 201.361 77.825C201.327 77.247 201.412 75.037 201.427 74.728C201.413 74.08 202.02 73.427 203.252 72.922L225.61 63.77C228.069 62.764 232.081 62.732 234.575 63.699L245.949 68.109C247.325 68.643 247.951 69.37 247.821 70.083Z" stroke="#1D1D1B"/>
<path d="M203.317 76.496C200.823 75.529 200.794 73.929 203.252 72.923L225.61 63.771C228.069 62.765 232.084 62.733 234.576 63.7L245.949 68.11C248.443 69.077 248.471 70.676 246.013 71.683L223.656 80.835C221.197 81.841 217.183 81.873 214.689 80.906L203.317 76.496Z" fill="#EFE9FE"/>
<path d="M203.317 76.496C200.823 75.529 200.794 73.929 203.252 72.923L225.61 63.771C228.069 62.765 232.084 62.733 234.576 63.7L245.949 68.11C248.443 69.077 248.471 70.676 246.013 71.683L223.656 80.835C221.197 81.841 217.183 81.873 214.689 80.906L203.317 76.496Z" stroke="#1D1D1B" stroke-width="0.5"/>
<path d="M220.916 59.4779L220.928 59.4819C220.928 59.4819 220.903 61.7399 220.862 62.4129C220.826 63.0339 220.218 63.6539 219.039 64.1369L196.681 73.2879C194.223 74.2939 190.208 74.3259 187.714 73.3589L176.343 68.9499C175.123 68.4769 174.493 67.8509 174.455 67.2189C174.421 66.6409 174.506 64.4319 174.521 64.1229C174.507 63.4749 175.115 62.8219 176.346 62.3169L198.705 53.1649C201.163 52.1589 205.178 52.1269 207.671 53.0939L219.043 57.5039C220.419 58.0379 221.045 58.7649 220.916 59.4779Z" fill="#D5C8FB"/>
<path d="M220.916 59.4779L220.928 59.4819C220.928 59.4819 220.903 61.7399 220.862 62.4129C220.826 63.0339 220.218 63.6539 219.039 64.1369L196.681 73.2879C194.223 74.2939 190.208 74.3259 187.714 73.3589L176.343 68.9499C175.123 68.4769 174.493 67.8509 174.455 67.2189C174.421 66.6409 174.506 64.4319 174.521 64.1229C174.507 63.4749 175.115 62.8219 176.346 62.3169L198.705 53.1649C201.163 52.1589 205.178 52.1269 207.671 53.0939L219.043 57.5039C220.419 58.0379 221.045 58.7649 220.916 59.4779Z" stroke="#1D1D1B"/>
<path d="M176.412 65.8919C173.918 64.9249 173.89 63.3249 176.347 62.3189L198.705 53.1669C201.164 52.1609 205.178 52.1289 207.673 53.0959L219.046 57.5059C221.538 58.4729 221.568 60.0729 219.109 61.0789L196.751 70.2309C194.292 71.2369 190.278 71.2689 187.784 70.3019L176.412 65.8919Z" fill="#EFE9FE"/>
<path d="M176.412 65.8919C173.918 64.9249 173.89 63.3249 176.347 62.3189L198.705 53.1669C201.164 52.1609 205.178 52.1289 207.673 53.0959L219.046 57.5059C221.538 58.4729 221.568 60.0729 219.109 61.0789L196.751 70.2309C194.292 71.2369 190.278 71.2689 187.784 70.3019L176.412 65.8919Z" stroke="#1D1D1B" stroke-width="0.5"/>
<path d="M235.008 97.1L235.019 97.104C235.019 97.104 234.995 99.362 234.955 100.035C234.918 100.656 234.311 101.275 233.131 101.757L210.773 110.91C208.316 111.917 204.301 111.949 201.807 110.981L190.436 106.572C189.216 106.099 188.584 105.474 188.548 104.842C188.513 104.264 188.597 102.054 188.614 101.745C188.6 101.097 189.207 100.444 190.439 99.939L212.796 90.787C215.255 89.781 219.269 89.749 221.763 90.716L233.135 95.126C234.512 95.66 235.137 96.387 235.008 97.1Z" fill="#D5C8FB"/>
<path d="M235.008 97.1L235.019 97.104C235.019 97.104 234.995 99.362 234.955 100.035C234.918 100.656 234.311 101.275 233.131 101.757L210.773 110.91C208.316 111.917 204.301 111.949 201.807 110.981L190.436 106.572C189.216 106.099 188.584 105.474 188.548 104.842C188.513 104.264 188.597 102.054 188.614 101.745C188.6 101.097 189.207 100.444 190.439 99.939L212.796 90.787C215.255 89.781 219.269 89.749 221.763 90.716L233.135 95.126C234.512 95.66 235.137 96.387 235.008 97.1Z" stroke="#1D1D1B"/>
<path d="M190.503 103.512C188.009 102.545 187.981 100.946 190.439 99.939L212.796 90.787C215.255 89.781 219.269 89.749 221.763 90.716L233.135 95.126C235.63 96.093 235.658 97.693 233.2 98.699L210.842 107.851C208.383 108.857 204.37 108.889 201.876 107.922L190.503 103.512Z" fill="white"/>
<path d="M190.503 103.512C188.009 102.545 187.981 100.946 190.439 99.939L212.796 90.787C215.255 89.781 219.269 89.749 221.763 90.716L233.135 95.126C235.63 96.093 235.658 97.693 233.2 98.699L210.842 107.851C208.383 108.857 204.37 108.889 201.876 107.922L190.503 103.512Z" stroke="#1D1D1B" stroke-width="0.5"/>
<path d="M206.748 86.48L206.761 86.485C206.761 86.485 206.734 88.743 206.694 89.416C206.657 90.037 206.05 90.656 204.87 91.139L182.512 100.291C180.055 101.297 176.041 101.329 173.547 100.362L162.175 95.952C160.954 95.479 160.326 94.854 160.288 94.222C160.254 93.644 160.339 91.434 160.354 91.125C160.34 90.477 160.947 89.824 162.179 89.319L184.537 80.168C186.994 79.162 191.009 79.13 193.502 80.097L204.876 84.506C206.252 85.04 206.878 85.767 206.748 86.48Z" fill="#D5C8FB"/>
<path d="M206.748 86.48L206.761 86.485C206.761 86.485 206.734 88.743 206.694 89.416C206.657 90.037 206.05 90.656 204.87 91.139L182.512 100.291C180.055 101.297 176.041 101.329 173.547 100.362L162.175 95.952C160.954 95.479 160.326 94.854 160.288 94.222C160.254 93.644 160.339 91.434 160.354 91.125C160.34 90.477 160.947 89.824 162.179 89.319L184.537 80.168C186.994 79.162 191.009 79.13 193.502 80.097L204.876 84.506C206.252 85.04 206.878 85.767 206.748 86.48Z" stroke="#1D1D1B"/>
<path d="M162.242 92.8939C159.748 91.9269 159.721 90.3269 162.179 89.3209L184.537 80.1689C186.996 79.1629 191.009 79.1309 193.505 80.0979L204.876 84.5079C207.368 85.4749 207.399 87.0749 204.94 88.0809L182.583 97.2329C180.124 98.2389 176.108 98.2709 173.614 97.3039L162.242 92.8939Z" fill="#EFE9FE"/>
<path d="M162.242 92.8939C159.748 91.9269 159.721 90.3269 162.179 89.3209L184.537 80.1689C186.996 79.1629 191.009 79.1309 193.505 80.0979L204.876 84.5079C207.368 85.4749 207.399 87.0749 204.94 88.0809L182.583 97.2329C180.124 98.2389 176.108 98.2709 173.614 97.3039L162.242 92.8939Z" stroke="#1D1D1B" stroke-width="0.5"/>
<path d="M179.841 75.875L179.854 75.879C179.854 75.879 179.828 78.137 179.788 78.81C179.751 79.431 179.144 80.051 177.964 80.534L155.606 89.685C153.149 90.691 149.134 90.723 146.64 89.756L135.269 85.346C134.049 84.873 133.419 84.248 133.381 83.616C133.347 83.038 133.431 80.829 133.447 80.52C133.433 79.872 134.04 79.219 135.272 78.714L157.631 69.562C160.088 68.556 164.104 68.524 166.596 69.491L177.968 73.901C179.345 74.435 179.97 75.162 179.841 75.875Z" fill="#D5C8FB"/>
<path d="M179.841 75.875L179.854 75.879C179.854 75.879 179.828 78.137 179.788 78.81C179.751 79.431 179.144 80.051 177.964 80.534L155.606 89.685C153.149 90.691 149.134 90.723 146.64 89.756L135.269 85.346C134.049 84.873 133.419 84.248 133.381 83.616C133.347 83.038 133.431 80.829 133.447 80.52C133.433 79.872 134.04 79.219 135.272 78.714L157.631 69.562C160.088 68.556 164.104 68.524 166.596 69.491L177.968 73.901C179.345 74.435 179.97 75.162 179.841 75.875Z" stroke="#1D1D1B"/>
<path d="M135.336 82.288C132.842 81.321 132.814 79.721 135.272 78.715L157.629 69.563C160.088 68.557 164.102 68.525 166.598 69.492L177.97 73.902C180.462 74.869 180.492 76.469 178.033 77.475L155.675 86.627C153.216 87.633 149.203 87.665 146.709 86.698L135.336 82.288Z" fill="white"/>
<path d="M135.336 82.288C132.842 81.321 132.814 79.721 135.272 78.715L157.629 69.563C160.088 68.557 164.102 68.525 166.598 69.492L177.97 73.902C180.462 74.869 180.492 76.469 178.033 77.475L155.675 86.627C153.216 87.633 149.203 87.665 146.709 86.698L135.336 82.288Z" stroke="#1D1D1B" stroke-width="0.5"/>
<path d="M195.292 113.511L195.304 113.515C195.304 113.515 195.278 115.773 195.237 116.446C195.2 117.067 194.594 117.687 193.416 118.17L171.056 127.321C168.598 128.327 164.583 128.359 162.09 127.392L150.718 122.983C149.498 122.51 148.869 121.884 148.831 121.252C148.798 120.674 148.881 118.465 148.897 118.156C148.882 117.508 149.491 116.855 150.722 116.35L173.08 107.199C175.538 106.193 179.553 106.16 182.045 107.127L193.419 111.537C194.797 112.071 195.421 112.798 195.292 113.511Z" fill="#D5C8FB"/>
<path d="M195.292 113.511L195.304 113.515C195.304 113.515 195.278 115.773 195.237 116.446C195.2 117.067 194.594 117.687 193.416 118.17L171.056 127.321C168.598 128.327 164.583 128.359 162.09 127.392L150.718 122.983C149.498 122.51 148.869 121.884 148.831 121.252C148.798 120.674 148.881 118.465 148.897 118.156C148.882 117.508 149.491 116.855 150.722 116.35L173.08 107.199C175.538 106.193 179.553 106.16 182.045 107.127L193.419 111.537C194.797 112.071 195.421 112.798 195.292 113.511Z" stroke="#1D1D1B"/>
<path d="M150.787 119.925C148.293 118.958 148.265 117.358 150.722 116.352L173.08 107.2C175.539 106.193 179.553 106.161 182.047 107.128L193.419 111.538C195.912 112.505 195.941 114.105 193.482 115.111L171.126 124.263C168.667 125.27 164.653 125.301 162.159 124.334L150.787 119.925Z" fill="#EFE9FE"/>
<path d="M150.787 119.925C148.293 118.958 148.265 117.358 150.722 116.352L173.08 107.2C175.539 106.193 179.553 106.161 182.047 107.128L193.419 111.538C195.912 112.505 195.941 114.105 193.482 115.111L171.126 124.263C168.667 125.27 164.653 125.301 162.159 124.334L150.787 119.925Z" stroke="#1D1D1B" stroke-width="0.5"/>
<path d="M167.031 102.891L167.042 102.895C167.042 102.895 167.018 105.154 166.977 105.827C166.941 106.447 166.333 107.066 165.154 107.549L142.796 116.701C140.338 117.707 136.323 117.739 133.829 116.772L122.457 112.362C121.238 111.889 120.607 111.264 120.57 110.632C120.535 110.054 120.619 107.845 120.636 107.537C120.622 106.888 121.23 106.235 122.461 105.731L144.819 96.579C147.278 95.572 151.292 95.541 153.786 96.508L165.158 100.917C166.534 101.451 167.16 102.178 167.031 102.891Z" fill="#D5C8FB"/>
<path d="M167.031 102.891L167.042 102.895C167.042 102.895 167.018 105.154 166.977 105.827C166.941 106.447 166.333 107.066 165.154 107.549L142.796 116.701C140.338 117.707 136.323 117.739 133.829 116.772L122.457 112.362C121.238 111.889 120.607 111.264 120.57 110.632C120.535 110.054 120.619 107.845 120.636 107.537C120.622 106.888 121.23 106.235 122.461 105.731L144.819 96.579C147.278 95.572 151.292 95.541 153.786 96.508L165.158 100.917C166.534 101.451 167.16 102.178 167.031 102.891Z" stroke="#1D1D1B"/>
<path d="M122.526 109.303C120.032 108.336 120.004 106.737 122.461 105.73L144.819 96.578C147.278 95.572 151.292 95.54 153.786 96.507L165.158 100.917C167.652 101.884 167.68 103.484 165.223 104.49L142.865 113.642C140.406 114.649 136.392 114.68 133.898 113.713L122.526 109.303Z" fill="white"/>
<path d="M122.526 109.303C120.032 108.336 120.004 106.737 122.461 105.73L144.819 96.578C147.278 95.572 151.292 95.54 153.786 96.507L165.158 100.917C167.652 101.884 167.68 103.484 165.223 104.49L142.865 113.642C140.406 114.649 136.392 114.68 133.898 113.713L122.526 109.303Z" stroke="#1D1D1B" stroke-width="0.5"/>
<path d="M140.126 92.2859L140.137 92.2899C140.137 92.2899 140.114 94.5479 140.073 95.2209C140.036 95.8419 139.429 96.4619 138.249 96.9449L115.892 106.097C113.434 107.103 109.419 107.135 106.925 106.168L95.5539 101.758C94.3336 101.285 93.7024 100.66 93.6658 100.028C93.6307 99.4499 93.715 97.2399 93.7319 96.9309C93.7178 96.2829 94.3252 95.6299 95.5567 95.1249L117.915 85.9729C120.373 84.9669 124.387 84.9349 126.881 85.9019L138.254 90.3119C139.63 90.8459 140.256 91.5729 140.126 92.2859Z" fill="#D5C8FB"/>
<path d="M140.126 92.2859L140.137 92.2899C140.137 92.2899 140.114 94.5479 140.073 95.2209C140.036 95.8419 139.429 96.4619 138.249 96.9449L115.892 106.097C113.434 107.103 109.419 107.135 106.925 106.168L95.5539 101.758C94.3336 101.285 93.7024 100.66 93.6658 100.028C93.6307 99.4499 93.715 97.2399 93.7319 96.9309C93.7178 96.2829 94.3252 95.6299 95.5567 95.1249L117.915 85.9729C120.373 84.9669 124.387 84.9349 126.881 85.9019L138.254 90.3119C139.63 90.8459 140.256 91.5729 140.126 92.2859Z" stroke="#1D1D1B"/>
<path d="M95.6214 98.6999C93.1274 97.7329 93.0992 96.1329 95.5567 95.1269L117.915 85.9749C120.373 84.9689 124.387 84.9369 126.881 85.9039L138.254 90.3139C140.748 91.2809 140.776 92.8799 138.318 93.8869L115.96 103.039C113.501 104.045 109.488 104.077 106.994 103.11L95.6214 98.6999Z" fill="#EFE9FE"/>
<path d="M95.6214 98.6999C93.1274 97.7329 93.0992 96.1329 95.5567 95.1269L117.915 85.9749C120.373 84.9689 124.387 84.9369 126.881 85.9039L138.254 90.3139C140.748 91.2809 140.776 92.8799 138.318 93.8869L115.96 103.039C113.501 104.045 109.488 104.077 106.994 103.11L95.6214 98.6999Z" stroke="#1D1D1B" stroke-width="0.5"/>
<path d="M53.1566 98.922L230.771 25.984" stroke="black"/>
<path d="M168.957 1.49596L59.0135 46.628C58.1138 46.998 57.7061 47.749 58.0294 48.436L67.581 68.158C67.7033 68.416 67.9381 68.622 68.2333 68.763C68.7634 69.018 71.599 69.929 71.599 69.929C72.1445 70.115 72.5241 69.957 72.9402 69.787L181.773 25.274C182.45 24.997 182.771 24.437 182.549 23.915L173.697 3.08696C173.572 2.78896 173.297 2.55696 172.951 2.40996C172.201 2.09196 171.359 1.69196 170.559 1.43796C170.067 1.28096 169.471 1.28396 168.957 1.49596Z" fill="#EFE9FE"/>
<path d="M168.957 1.49596L59.0135 46.628C58.1138 46.998 57.7061 47.749 58.0294 48.436L67.581 68.158C67.7033 68.416 67.9381 68.622 68.2333 68.763C68.7634 69.018 71.599 69.929 71.599 69.929C72.1445 70.115 72.5241 69.957 72.9402 69.787L181.773 25.274C182.45 24.997 182.771 24.437 182.549 23.915L173.697 3.08696C173.572 2.78896 173.297 2.55696 172.951 2.40996C172.201 2.09196 171.359 1.69196 170.559 1.43796C170.067 1.28096 169.471 1.28396 168.957 1.49596Z" stroke="#1D1D1B"/>
<path d="M62.1332 47.522L171.34 2.617C172.119 2.297 173.113 2.575 173.361 3.16L182.211 23.988C182.384 24.396 182.138 24.836 181.597 25.057L72.7645 69.57C71.9997 69.883 71.0254 69.622 70.7569 69.054L61.3065 49.033C61.0366 48.462 61.374 47.834 62.1332 47.522Z" fill="#D5C8FB"/>
<path d="M171.34 2.617L62.1332 47.522C61.374 47.834 61.0366 48.462 61.3065 49.033L70.7569 69.054C71.0254 69.622 71.9997 69.883 72.7645 69.57L181.597 25.057C182.138 24.836 182.384 24.396 182.211 23.988L173.361 3.16C173.113 2.575 172.119 2.297 171.34 2.617ZM171.34 2.617L171.164 2.401" stroke="#1D1D1B" stroke-width="0.5"/>
<path d="M73.6544 52.277C73.4899 51.964 73.8259 51.431 74.3138 51.23L166.638 13.301C167.247 13.051 167.794 13.145 167.999 13.535L170.536 18.363C170.864 18.988 170.192 20.051 169.218 20.451L77.8861 57.975C77.2774 58.225 76.7305 58.129 76.5252 57.74L73.6544 52.277Z" fill="#1D1D1B"/>
<path d="M73.6544 52.277C73.4899 51.964 73.8259 51.431 74.3138 51.23L166.638 13.301C167.247 13.051 167.794 13.145 167.999 13.535L170.536 18.363C170.864 18.988 170.192 20.051 169.218 20.451L77.8861 57.975C77.2774 58.225 76.7305 58.129 76.5252 57.74L73.6544 52.277Z" stroke="#1D1D1B"/>
<mask id="mask1_1_950" style="mask-type:alpha" maskUnits="userSpaceOnUse" x="73" y="12" width="255" height="162">
<path d="M73.653 52.278C73.4885 51.965 73.8245 51.432 74.3124 51.231L166.637 13.302C167.246 13.052 167.793 13.146 167.998 13.536L326.952 67.743C327.279 68.367 326.609 69.431 325.634 69.832L287.213 172.784C286.604 173.034 286.057 172.94 285.852 172.55L73.653 52.278Z" fill="#1D1D1B"/>
<path d="M73.653 52.278C73.4885 51.965 73.8245 51.432 74.3124 51.231L166.637 13.302C167.246 13.052 167.793 13.146 167.998 13.536L326.952 67.743C327.279 68.367 326.609 69.431 325.634 69.832L287.213 172.784C286.604 173.034 286.057 172.94 285.852 172.55L73.653 52.278Z" stroke="#1D1D1B"/>
</mask>
<g mask="url(#mask1_1_950)">
<path d="M283.131 65.462C283.122 65.784 283.11 66.441 283.138 67.024C283.176 67.866 282.393 68.711 280.786 69.351L203.68 100.074C200.532 101.332 195.402 101.325 192.221 100.057L62.0792 48.205C60.4666 47.562 59.6681 46.719 59.6864 45.88C59.699 45.221 59.6906 44.472 59.6878 44.213C59.6428 43.368 60.4259 42.52 62.0384 41.877L139.144 11.1551C142.298 9.89806 147.428 9.90606 150.604 11.1711L280.745 63.024C282.301 63.644 283.1 64.452 283.138 65.262V65.264C283.141 65.33 283.138 65.396 283.131 65.462Z" fill="#1D1D1B"/>
<path d="M283.131 65.462C283.122 65.784 283.11 66.441 283.138 67.024C283.176 67.866 282.393 68.711 280.786 69.351L203.68 100.074C200.532 101.332 195.402 101.325 192.221 100.057L62.0792 48.205C60.4666 47.562 59.6681 46.719 59.6864 45.88C59.699 45.221 59.6906 44.472 59.6878 44.213C59.6428 43.368 60.4259 42.52 62.0384 41.877L139.144 11.1551C142.298 9.89806 147.428 9.90606 150.604 11.1711L280.745 63.024C282.301 63.644 283.1 64.452 283.138 65.262V65.264C283.141 65.33 283.138 65.396 283.131 65.462Z" stroke="#1D1D1B" stroke-width="0.973" stroke-miterlimit="10"/>
<path d="M62.0804 46.443L192.22 98.296C195.401 99.564 200.532 99.571 203.678 98.312L280.786 67.59C283.938 66.334 283.921 64.29 280.745 63.025L150.605 11.171C147.429 9.90604 142.299 9.89904 139.145 11.156L62.0396 41.878C58.8862 43.134 58.9045 45.178 62.0804 46.443Z" fill="white"/>
<path d="M62.0804 46.443L192.22 98.296C195.401 99.564 200.532 99.571 203.678 98.312L280.786 67.59C283.938 66.334 283.921 64.29 280.745 63.025L150.605 11.171C147.429 9.90604 142.299 9.89904 139.145 11.156L62.0396 41.878C58.8862 43.134 58.9045 45.178 62.0804 46.443Z" stroke="#1D1D1B" stroke-miterlimit="10"/>
<path d="M226.531 50.9851C229.888 49.6481 234.827 49.6481 238.048 50.9321C241.346 52.2461 241.346 54.2131 237.996 55.5531C236.42 56.1811 234.424 56.5071 232.411 56.5231C232.713 56.7601 233.111 56.9981 233.594 57.2371L231.715 57.8371C230.729 57.3461 230.035 56.8511 229.626 56.3441C228.487 56.1831 227.413 55.9181 226.474 55.5441C223.251 54.2601 223.309 52.2691 226.531 50.9851ZM236.409 51.5851C234.172 50.6941 230.757 50.7481 228.348 51.7091C226 52.6441 225.942 53.9781 228.172 54.8671C228.499 54.9971 228.844 55.1071 229.2 55.1971C229.222 54.5881 229.649 53.9621 230.455 53.3161L232.609 53.7411C231.815 54.3791 231.487 54.9651 231.639 55.5321C233.222 55.5861 234.85 55.3511 236.169 54.8251C238.58 53.8651 238.703 52.4991 236.409 51.5851ZM257.798 62.925L254.4 64.279C253.098 64.797 253.735 65.428 255.515 65.663L253.869 66.319C251.226 65.735 250.291 64.609 253.041 63.514L259.754 60.839L261.394 61.492L259.38 62.295L261.493 63.137L259.911 63.767L257.798 62.925ZM266.197 64.868C263.902 63.954 260.325 63.98 258.036 64.891C255.684 65.829 255.741 67.206 258.036 68.12C260.388 69.057 263.843 69.08 266.197 68.143C268.491 67.229 268.549 65.805 266.197 64.868ZM259.676 67.466C258.391 66.954 258.386 66.105 259.734 65.568C261.153 65.003 263.266 65.008 264.556 65.522C265.916 66.064 265.916 66.901 264.497 67.466C263.155 68.001 261.036 68.008 259.676 67.466ZM253.752 59.9111C253.104 59.6531 252.123 59.4251 250.728 59.5161L251.563 59.1831L249.981 58.5531L242.176 61.663L243.758 62.293L248.224 60.5141C249.315 60.0791 250.897 60.0491 251.902 60.4491C252.906 60.8491 252.906 61.509 251.813 61.944L247.348 63.724L249.047 64.4L253.63 62.575C255.567 61.802 255.462 60.5931 253.752 59.9111ZM245.159 56.4851C242.865 55.5711 239.287 55.5961 236.998 56.5081C234.646 57.4461 234.704 58.8231 236.998 59.7371C239.35 60.6741 242.807 60.6971 245.159 59.7601C247.454 58.8461 247.511 57.4221 245.159 56.4851ZM238.639 59.0831C237.337 58.5641 237.348 57.7221 238.696 57.1851C240.115 56.6201 242.217 56.6201 243.519 57.1381C244.861 57.6731 244.879 58.5181 243.461 59.0831C242.118 59.6181 239.987 59.6201 238.639 59.0831Z" fill="#1D1D1B"/>
<path d="M132.853 27.933C131.555 27.416 129.451 27.416 128.153 27.933L119.081 31.548C117.783 32.065 117.783 32.903 119.081 33.42L132.988 38.961C134.285 39.478 136.39 39.478 137.688 38.961L146.759 35.347C148.058 34.829 148.058 33.991 146.759 33.474L132.853 27.933Z" fill="white"/>
<path d="M132.853 27.933C131.555 27.416 129.451 27.416 128.153 27.933L119.081 31.548C117.783 32.065 117.783 32.903 119.081 33.42L132.988 38.961C134.285 39.478 136.39 39.478 137.688 38.961L146.759 35.347C148.058 34.829 148.058 33.991 146.759 33.474L132.853 27.933Z" stroke="#1D1D1B" stroke-width="0.5"/>
<path d="M136.331 30.312L141.018 32.18" stroke="#1D1D1B" stroke-width="0.5"/>
<path d="M124.904 34.8661L129.591 36.7341" stroke="#1D1D1B" stroke-width="0.5"/>
<path d="M140.003 38.083L134.191 35.766L134.198 35.747C134.312 35.44 134.825 35.107 135.731 34.747C136.632 34.388 137.55 34.15 138.488 34.033L138.547 34.025L144.364 36.342" stroke="#1D1D1B" stroke-width="0.5"/>
<path d="M130.14 37.7951C130.147 37.3221 130.65 36.8871 131.654 36.4871C132.662 36.0851 133.554 35.8551 134.323 35.7931" stroke="#1D1D1B" stroke-width="0.5"/>
<path d="M125.69 28.9131L131.406 31.1911L131.46 31.1871C132.348 31.1201 133.269 30.8941 134.225 30.5141C135.187 30.1311 135.697 29.6421 135.756 29.0511" stroke="#1D1D1B" stroke-width="0.5"/>
<path d="M121.502 30.583L127.051 32.793H127.097C128.104 32.766 129.035 32.581 129.888 32.241C130.736 31.903 131.288 31.541 131.54 31.157" stroke="#1D1D1B" stroke-width="0.5"/>
<path d="M121.988 34.609C123.298 34.606 124.411 34.423 125.319 34.061C126.22 33.702 126.844 33.268 127.191 32.761" stroke="#1D1D1B" stroke-width="0.5"/>
<path d="M146.851 38.2661C146.816 38.3541 146.753 38.4401 146.647 38.5241C146.548 38.6061 146.414 38.6811 146.238 38.7511C146.07 38.8181 145.871 38.8751 145.666 38.9151C145.468 38.9571 145.244 38.9851 145.017 38.9961C144.713 39.0151 144.503 39.1261 144.55 39.2471C144.596 39.3681 144.877 39.4521 145.181 39.4341C145.513 39.4131 145.847 39.3731 146.162 39.3131C146.472 39.2501 146.764 39.1651 147.02 39.0631C147.277 38.9601 147.488 38.8441 147.646 38.7211C147.797 38.5951 147.9 38.4661 147.948 38.3311C147.994 38.2101 147.783 38.0981 147.481 38.0801C147.177 38.0611 146.898 38.1451 146.851 38.2661Z" fill="#1D1D1B"/>
<path d="M148.928 38.507C148.746 38.816 148.356 39.108 147.748 39.35C147.142 39.592 146.411 39.748 145.635 39.82C145.337 39.85 145.157 39.969 145.227 40.085C145.303 40.203 145.594 40.277 145.898 40.249C146.861 40.158 147.783 39.964 148.537 39.664C149.289 39.364 149.785 38.999 150.007 38.613C150.078 38.492 149.891 38.375 149.593 38.345C149.302 38.317 148.998 38.391 148.928 38.507Z" fill="#1D1D1B"/>
<path d="M151.094 38.78C150.802 39.222 150.224 39.643 149.355 39.99C148.479 40.338 147.433 40.569 146.318 40.683C146.02 40.713 145.845 40.834 145.921 40.952C145.997 41.071 146.3 41.141 146.598 41.111C147.894 40.976 149.12 40.706 150.137 40.301C151.152 39.896 151.828 39.408 152.167 38.892C152.243 38.773 152.067 38.652 151.77 38.622C151.478 38.589 151.181 38.661 151.094 38.78Z" fill="#1D1D1B"/>
<path d="M153.265 39.049C152.863 39.628 152.098 40.175 150.959 40.628C149.815 41.084 148.443 41.389 146.996 41.547C146.704 41.58 146.528 41.7 146.611 41.817C146.692 41.933 146.996 42.003 147.287 41.97C148.922 41.793 150.457 41.447 151.741 40.935C153.02 40.426 153.889 39.81 154.339 39.161C154.421 39.044 154.252 38.921 153.954 38.891C153.656 38.861 153.352 38.93 153.265 39.049Z" fill="#1D1D1B"/>
<path d="M188.544 85.711C191.481 84.541 195.472 84.048 199.303 84.221C198.983 83.106 197.743 82.028 195.588 81.169C190.496 79.139 182.26 79.149 177.19 81.169C172.098 83.198 172.122 86.479 177.19 88.499C179.347 89.358 182.053 89.851 184.851 89.979C184.346 88.48 185.585 86.89 188.544 85.711Z" fill="white"/>
<path d="M188.544 85.711C191.481 84.541 195.472 84.048 199.303 84.221C198.983 83.106 197.743 82.028 195.588 81.169C190.496 79.139 182.26 79.149 177.19 81.169C172.098 83.198 172.122 86.479 177.19 88.499C179.347 89.358 182.053 89.851 184.851 89.979C184.346 88.48 185.585 86.89 188.544 85.711Z" stroke="#1D1D1B" stroke-width="0.5"/>
<path d="M206.944 93.042C201.851 95.071 193.615 95.062 188.546 93.042C186.389 92.183 185.15 91.104 184.83 89.989C188.66 90.163 192.651 89.669 195.588 88.5C198.523 87.33 199.765 85.739 199.329 84.213C202.127 84.341 204.834 84.834 206.989 85.694C212.014 87.732 212.014 91.022 206.944 93.042Z" fill="white"/>
<path d="M206.944 93.042C201.851 95.071 193.615 95.062 188.546 93.042C186.389 92.183 185.15 91.104 184.83 89.989C188.66 90.163 192.651 89.669 195.588 88.5C198.523 87.33 199.765 85.739 199.329 84.213C202.127 84.341 204.834 84.834 206.989 85.694C212.014 87.732 212.014 91.022 206.944 93.042Z" stroke="#1D1D1B" stroke-width="0.5"/>
</g>
<path d="M73.6544 52.277C73.4899 51.964 73.8259 51.431 74.3138 51.23L166.638 13.301C167.247 13.051 167.794 13.145 167.999 13.535" fill="#1D1D1B"/>
<path d="M73.6544 52.277C73.4899 51.964 73.8259 51.431 74.3138 51.23L166.638 13.301C167.247 13.051 167.794 13.145 167.999 13.535" stroke="#1D1D1B"/>
</g>
</svg>
