<svg width="214" height="130" viewBox="0 0 214 130" fill="none" xmlns="http://www.w3.org/2000/svg">
<g clip-path="url(#clip0_1_964)">
<mask id="mask0_1_964" style="mask-type:luminance" maskUnits="userSpaceOnUse" x="0" y="0" width="214" height="130">
<path d="M213.77 0H0.660278V130H213.77V0Z" fill="white"/>
</mask>
<g mask="url(#mask0_1_964)">
<path d="M82.7658 94.1771L140.613 125.136C137.37 123.453 135.211 120.764 135.219 116.528L77.3713 85.576C77.3638 89.8121 79.5153 92.5011 82.7658 94.1771Z" fill="white"/>
<path d="M82.7658 94.1771L140.613 125.136C137.37 123.453 135.211 120.764 135.219 116.528L77.3713 85.576C77.3638 89.8121 79.5153 92.5011 82.7658 94.1771Z" stroke="#1D1D1B" stroke-linejoin="round"/>
<path d="M156.261 130L156.551 33.805L94.292 0L93.3395 0.545998L95.5201 96.884L156.261 130Z" fill="#1D1D1B"/>
<path d="M156.261 130L156.551 33.805L94.292 0L93.3395 0.545998L95.5201 96.884L156.261 130Z" stroke="#1D1D1B" stroke-width="0.5" stroke-linejoin="round"/>
<path d="M86.1153 92.712C86.2014 92.668 86.2864 92.623 86.3725 92.579L86.1153 92.712ZM87.028 92.255C87.1453 92.189 87.254 92.115 87.3713 92.049C87.254 92.115 87.1377 92.189 87.028 92.255ZM155.381 34.498L155.569 113.517L155.561 113.672L155.554 113.664C155.491 117.776 153.127 121.631 149.724 123.79L149.865 123.717C149.733 123.805 149.583 123.886 149.443 123.967C149.334 124.033 149.233 124.1 149.124 124.159C148.898 124.284 148.663 124.402 148.429 124.513C148.352 124.542 148.281 124.587 148.211 124.616C148.203 124.616 148.195 124.624 148.18 124.631L148.203 124.616C147.236 125.043 146.213 125.345 145.152 125.485C143.186 125.75 141.799 125.882 139.823 124.687C139.823 124.687 139.705 124.638 139.604 124.586L139.277 124.417L82.1985 93.626C82.4483 93.641 82.7216 93.633 83.0488 93.589C84.1101 93.449 85.1326 93.146 86.1002 92.719L87.6372 91.879C91.0781 89.69 93.544 85.814 93.5515 81.65L93.3642 0.686035L155.381 34.498Z" fill="white"/>
<path d="M86.1153 92.712C86.2014 92.668 86.2864 92.623 86.3725 92.579M87.028 92.255C87.1453 92.189 87.254 92.115 87.3713 92.049C87.254 92.115 87.1377 92.189 87.028 92.255ZM155.381 34.498L155.569 113.517L155.561 113.672L155.554 113.664C155.491 117.776 153.127 121.631 149.724 123.79L149.865 123.717C149.733 123.805 149.583 123.886 149.443 123.967C149.334 124.033 149.233 124.1 149.124 124.159C148.898 124.284 148.663 124.402 148.429 124.513C148.352 124.542 148.281 124.587 148.211 124.616C148.203 124.616 148.195 124.624 148.18 124.631L148.203 124.616C147.236 125.043 146.213 125.345 145.152 125.485C143.186 125.75 141.799 125.882 139.823 124.687C139.823 124.687 139.705 124.638 139.604 124.586L139.277 124.417L82.1985 93.626C82.4483 93.641 82.7216 93.633 83.0488 93.589C84.1101 93.449 85.1326 93.146 86.1002 92.719L87.6372 91.879C91.0781 89.69 93.544 85.814 93.5515 81.65L93.3642 0.686035L155.381 34.498Z" stroke="#1D1D1B" stroke-linejoin="round"/>
<path d="M82.7658 94.1771L140.613 125.136C137.37 123.453 135.211 120.764 135.219 116.528L77.3713 85.576C77.3638 89.8121 79.5153 92.5011 82.7658 94.1771Z" fill="#FCFFD0"/>
<path d="M82.7658 94.1771L140.613 125.136C137.37 123.453 135.211 120.764 135.219 116.528L77.3713 85.576C77.3638 89.8121 79.5153 92.5011 82.7658 94.1771Z" stroke="#1D1D1B" stroke-width="0.5" stroke-linejoin="round"/>
<path d="M142.561 94.972C142.561 94.33 142.079 93.554 141.486 93.226L123.683 83.515C123.09 83.187 122.609 83.447 122.609 84.089L122.576 93.144C122.576 93.786 123.051 94.569 123.644 94.89L141.463 104.601C142.056 104.929 142.538 104.669 142.538 104.027L142.561 94.972Z" fill="#FCFFD0"/>
<path d="M142.561 94.972C142.561 94.33 142.079 93.554 141.486 93.226L123.683 83.515C123.09 83.187 122.609 83.447 122.609 84.089L122.576 93.144C122.576 93.786 123.051 94.569 123.644 94.89L141.463 104.601C142.056 104.929 142.538 104.669 142.538 104.027L142.561 94.972Z" stroke="#1D1D1B" stroke-width="0.5" stroke-linecap="round" stroke-linejoin="round"/>
<path d="M124.229 83.2109L142.047 92.9219C142.64 93.2429 143.115 94.0269 143.122 94.6689L143.099 103.723C143.099 104.044 142.98 104.268 142.791 104.372L142.229 104.678C142.418 104.574 142.538 104.35 142.538 104.029L142.561 94.9749C142.561 94.3329 142.079 93.5559 141.486 93.2279L123.668 83.5169C123.375 83.3599 123.107 83.3459 122.909 83.4499L123.47 83.1439C123.659 83.0319 123.928 83.0469 124.229 83.2109Z" fill="#1D1D1B"/>
<path d="M124.229 83.2109L142.047 92.9219C142.64 93.2429 143.115 94.0269 143.122 94.6689L143.099 103.723C143.099 104.044 142.98 104.268 142.791 104.372L142.229 104.678C142.418 104.574 142.538 104.35 142.538 104.029L142.561 94.9749C142.561 94.3329 142.079 93.5559 141.486 93.2279L123.668 83.5169C123.375 83.3599 123.107 83.3459 122.909 83.4499L123.47 83.1439C123.659 83.0319 123.928 83.0469 124.229 83.2109Z" stroke="#1D1D1B" stroke-width="0.5" stroke-linecap="round" stroke-linejoin="round"/>
<path d="M122.047 31.794C122.047 31.152 121.573 30.369 120.98 30.048L103.153 20.337C102.56 20.009 102.078 20.269 102.078 20.911L102.047 29.966C102.047 30.608 102.529 31.384 103.122 31.712L120.948 41.423C121.541 41.751 122.023 41.491 122.023 40.849L122.047 31.794Z" fill="white"/>
<path d="M122.047 31.794C122.047 31.152 121.573 30.369 120.98 30.048L103.153 20.337C102.56 20.009 102.078 20.269 102.078 20.911L102.047 29.966C102.047 30.608 102.529 31.384 103.122 31.712L120.948 41.423C121.541 41.751 122.023 41.491 122.023 40.849L122.047 31.794Z" stroke="#1D1D1B" stroke-width="0.5" stroke-linecap="round" stroke-linejoin="round"/>
<path d="M103.711 20.032L121.529 29.743C122.122 30.064 122.604 30.848 122.604 31.497L122.573 40.551C122.573 40.872 122.455 41.097 122.265 41.201L121.704 41.507C121.902 41.403 122.02 41.178 122.02 40.857L122.044 31.803C122.044 31.161 121.569 30.378 120.976 30.057L103.158 20.338C102.857 20.174 102.581 20.159 102.391 20.263L102.945 19.957C103.143 19.853 103.411 19.868 103.711 20.032Z" fill="#1D1D1B"/>
<path d="M103.711 20.032L121.529 29.743C122.122 30.064 122.604 30.848 122.604 31.497L122.573 40.551C122.573 40.872 122.455 41.097 122.265 41.201L121.704 41.507C121.902 41.403 122.02 41.178 122.02 40.857L122.044 31.803C122.044 31.161 121.569 30.378 120.976 30.057L103.158 20.338C102.857 20.174 102.581 20.159 102.391 20.263L102.945 19.957C103.143 19.853 103.411 19.868 103.711 20.032Z" stroke="#1D1D1B" stroke-width="0.5" stroke-linecap="round" stroke-linejoin="round"/>
<path d="M143.44 65.175C143.44 64.533 142.966 63.749 142.373 63.428L102.989 41.953C102.396 41.625 101.913 41.886 101.913 42.528L101.875 55.665C101.875 56.307 102.348 57.091 102.941 57.412L142.326 78.887C142.919 79.215 143.401 78.954 143.401 78.312L143.44 65.175Z" fill="white"/>
<path d="M143.44 65.175C143.44 64.533 142.966 63.749 142.373 63.428L102.989 41.953C102.396 41.625 101.913 41.886 101.913 42.528L101.875 55.665C101.875 56.307 102.348 57.091 102.941 57.412L142.326 78.887C142.919 79.215 143.401 78.954 143.401 78.312L143.44 65.175Z" stroke="#1D1D1B" stroke-width="0.5" stroke-linecap="round" stroke-linejoin="round"/>
<path d="M103.54 41.65L142.932 63.124C143.525 63.445 143.999 64.222 144.007 64.871L143.967 78.008C143.96 78.329 143.84 78.554 143.651 78.658L143.09 78.964C143.288 78.86 143.405 78.635 143.405 78.314L143.445 65.177C143.445 64.535 142.972 63.752 142.378 63.431L102.985 41.956C102.693 41.799 102.425 41.785 102.227 41.889L102.78 41.583C102.969 41.471 103.239 41.486 103.54 41.65Z" fill="#1D1D1B"/>
<path d="M103.54 41.65L142.932 63.124C143.525 63.445 143.999 64.222 144.007 64.871L143.967 78.008C143.96 78.329 143.84 78.554 143.651 78.658L143.09 78.964C143.288 78.86 143.405 78.635 143.405 78.314L143.445 65.177C143.445 64.535 142.972 63.752 142.378 63.431L102.985 41.956C102.693 41.799 102.425 41.785 102.227 41.889L102.78 41.583C102.969 41.471 103.239 41.486 103.54 41.65Z" stroke="#1D1D1B" stroke-width="0.5" stroke-linecap="round" stroke-linejoin="round"/>
<path d="M128.431 55.635L128.407 63.211V63.517L128.383 71.101" fill="#1D1D1B"/>
<path d="M128.431 55.635L128.407 63.211V63.517L128.383 71.101" stroke="#1D1D1B" stroke-width="0.5"/>
<path d="M143.81 72L101.834 49L143.81 72Z" fill="#1D1D1B"/>
<path d="M143.81 72L101.834 49" stroke="#1D1D1B" stroke-width="0.5"/>
<path d="M141.489 93.1387C142.09 93.466 142.58 94.2413 142.58 94.8832L142.556 103.926C142.556 104.567 142.067 104.828 141.465 104.5L123.379 94.8004C122.778 94.4806 122.295 93.6978 122.295 93.0567L122.328 84.0138C122.328 83.3719 122.817 83.1117 123.419 83.4398L141.489 93.1387Z" fill="#FDFFD0"/>
<path d="M141.489 93.1387C142.09 93.466 142.58 94.2413 142.58 94.8832L142.556 103.926C142.556 104.567 142.067 104.828 141.465 104.5L123.379 94.8004C122.778 94.4806 122.295 93.6978 122.295 93.0567L122.328 84.0138C122.328 83.3719 122.817 83.1117 123.419 83.4398L141.489 93.1387Z" stroke="#1D1D1B" stroke-width="0.37275" stroke-linecap="round" stroke-linejoin="round"/>
<path d="M142.058 92.8331L123.972 83.1342C123.667 82.9701 123.395 82.9552 123.202 83.0671L122.632 83.3727C122.833 83.2683 123.106 83.2825 123.403 83.4398L141.488 93.1388C142.09 93.4668 142.58 94.2421 142.58 94.8832L142.556 103.926C142.556 104.247 142.436 104.47 142.243 104.575L142.812 104.269C143.006 104.165 143.125 103.941 143.125 103.62L143.149 94.5776C143.142 93.9357 142.66 93.1537 142.058 92.8331Z" fill="#1D1D1B"/>
<path d="M142.058 92.8331L123.972 83.1342C123.667 82.9701 123.395 82.9552 123.202 83.0671L122.632 83.3727C122.833 83.2683 123.106 83.2825 123.403 83.4398L141.488 93.1388C142.09 93.4668 142.58 94.2421 142.58 94.8832L142.556 103.926C142.556 104.247 142.436 104.47 142.243 104.575L142.812 104.269C143.006 104.165 143.125 103.941 143.125 103.62L143.149 94.5776C143.142 93.9357 142.66 93.1537 142.058 92.8331Z" stroke="#1D1D1B" stroke-width="0.37275" stroke-linecap="round" stroke-linejoin="round"/>
<path d="M138.454 98.8579L139.001 99.7406C138.64 99.9009 138.196 99.9046 137.715 99.7503C136.359 99.3149 135.071 97.8895 134.531 96.2263C134.511 96.163 134.483 96.0608 134.483 96.0608C134.483 96.0608 134.386 96.0086 134.333 95.9803C134.023 95.8208 133.711 95.6501 133.387 95.4756V94.8173L134.324 95.3198V94.6503L133.384 94.1456V93.4769C133.693 93.6432 133.998 93.799 134.302 93.9734C134.353 93.9995 134.475 94.0703 134.475 94.0703C134.475 94.0703 134.513 93.9965 134.545 93.9287C135.256 92.4862 137.404 93.0401 138.859 95.0343C138.905 95.0991 138.949 95.1655 138.986 95.2177L138.437 95.5062C137.873 94.7316 137.222 94.2239 136.503 94.08C135.987 93.9764 135.605 94.1277 135.326 94.5124L137.117 95.4741V96.1361L135.118 95.0633V95.735L137.114 96.8063V97.4653L135.352 96.5208C135.544 97.2037 136.197 98.0289 136.757 98.4293C137.39 98.884 137.959 99.0294 138.454 98.8579Z" fill="#1D1D1B"/>
<path d="M59.2353 23.3149C59.2353 34.9369 69.4355 53.5339 80.0942 59.3449C85.718 62.4099 90.6421 60.3929 94.1692 58.1319C97.3282 56.1069 99.2569 52.1579 99.2569 46.6669C99.2569 35.0449 90.6163 20.9129 79.9565 15.1019C74.7396 12.2579 70.007 11.9349 66.5327 13.7079C62.9087 15.5579 59.2353 17.3809 59.2353 23.3149Z" fill="#1D1D1B"/>
<path d="M59.2353 23.3149C59.2353 34.9369 69.4355 53.5339 80.0942 59.3449C85.718 62.4099 90.6421 60.3929 94.1692 58.1319C97.3282 56.1069 99.2569 52.1579 99.2569 46.6669C99.2569 35.0449 90.6163 20.9129 79.9565 15.1019C74.7396 12.2579 70.007 11.9349 66.5327 13.7079C62.9087 15.5579 59.2353 17.3809 59.2353 23.3149Z" stroke="#1D1D1B" stroke-width="0.929"/>
<path d="M77.4342 16.6232C66.7743 10.7392 58.1326 15.3322 58.1326 26.8822C58.1326 38.4312 66.7743 52.5632 77.4342 58.4472C88.094 64.3302 96.7357 59.7372 96.7357 48.1882C96.7357 36.6392 88.094 22.5072 77.4342 16.6232Z" fill="white"/>
<mask id="mask1_1_964" style="mask-type:alpha" maskUnits="userSpaceOnUse" x="58" y="14" width="39" height="48">
<path d="M77.4342 16.6232C66.7743 10.7392 58.1326 15.3322 58.1326 26.8822C58.1326 38.4312 66.7743 52.5632 77.4342 58.4472C88.094 64.3302 96.7357 59.7372 96.7357 48.1882C96.7357 36.6392 88.094 22.5072 77.4342 16.6232Z" fill="white"/>
</mask>
<g mask="url(#mask1_1_964)">
<path d="M77.4342 16.6232C66.7743 10.7392 58.1326 15.3322 58.1326 26.8822C58.1326 38.4312 66.7743 52.5632 77.4342 58.4472C88.094 64.3302 96.7357 59.7372 96.7357 48.1882C96.7357 36.6392 88.094 22.5072 77.4342 16.6232Z" fill="#F4F8AC"/>
</g>
<path d="M77.4342 16.6232C66.7743 10.7392 58.1326 15.3322 58.1326 26.8822C58.1326 38.4312 66.7743 52.5632 77.4342 58.4472C88.094 64.3302 96.7357 59.7372 96.7357 48.1882C96.7357 36.6392 88.094 22.5072 77.4342 16.6232Z" stroke="#1D1D1B"/>
<path d="M77.3233 45.5828L75.5915 46.4998C75.6862 46.4488 75.7712 46.3828 75.8423 46.3048L77.5741 45.3878C77.503 45.4658 77.418 45.5318 77.3233 45.5828Z" fill="white"/>
<path d="M77.3233 45.5828L75.5915 46.4998C75.6862 46.4488 75.7712 46.3828 75.8423 46.3048L77.5741 45.3878C77.503 45.4658 77.418 45.5318 77.3233 45.5828Z" stroke="#1D1D1B" stroke-width="0.464" stroke-miterlimit="10"/>
<path d="M72.5132 34.8368C72.1333 34.2238 71.635 33.7488 71.1355 33.4768C70.6361 33.2048 70.1367 33.1348 69.7557 33.3328L68.0239 34.2498C68.406 34.0518 68.9054 34.1188 69.4048 34.3908C69.9042 34.6638 70.4026 35.1388 70.7825 35.7528L74.0577 41.0438L75.7884 40.1278L72.5132 34.8368Z" fill="#1D1D1B"/>
<path d="M72.5132 34.8368C72.1333 34.2238 71.635 33.7488 71.1355 33.4768C70.6361 33.2048 70.1367 33.1348 69.7557 33.3328L68.0239 34.2498C68.406 34.0518 68.9054 34.1188 69.4048 34.3908C69.9042 34.6638 70.4026 35.1388 70.7825 35.7528L74.0577 41.0438L75.7884 40.1278L72.5132 34.8368Z" stroke="#1D1D1B" stroke-width="0.464" stroke-miterlimit="10"/>
<path d="M84.0201 34.3588C84.4409 34.5878 84.865 34.9628 85.2202 35.4538C86.0586 36.6158 86.1986 37.9908 85.5312 38.5248L75.8423 46.2388C75.7702 46.3188 75.683 46.3858 75.585 46.4368C75.2029 46.6348 74.7035 46.5678 74.2041 46.2968C73.7058 46.0258 73.2064 45.5538 72.8286 44.9428L68.0153 37.1918C67.2554 35.9708 67.2587 34.6568 68.0239 34.2618C68.4049 34.0638 68.9044 34.1308 69.4048 34.4018C69.9043 34.6728 70.4015 35.1448 70.7814 35.7568L74.0567 41.0308L82.4939 34.3178C82.8781 34.0088 83.4464 34.0478 84.0201 34.3588Z" fill="white"/>
<path d="M84.0201 34.3588C84.4409 34.5878 84.865 34.9628 85.2202 35.4538C86.0586 36.6158 86.1986 37.9908 85.5312 38.5248L75.8423 46.2388C75.7702 46.3188 75.683 46.3858 75.585 46.4368C75.2029 46.6348 74.7035 46.5678 74.2041 46.2968C73.7058 46.0258 73.2064 45.5538 72.8286 44.9428L68.0153 37.1918C67.2554 35.9708 67.2587 34.6568 68.0239 34.2618C68.4049 34.0638 68.9044 34.1308 69.4048 34.4018C69.9043 34.6728 70.4015 35.1448 70.7814 35.7568L74.0567 41.0308L82.4939 34.3178C82.8781 34.0088 83.4464 34.0478 84.0201 34.3588Z" stroke="#1D1D1B" stroke-width="0.5" stroke-miterlimit="10"/>
<path d="M86.9585 34.4788C86.6033 33.9858 86.1803 33.6078 85.7584 33.3788C85.2536 33.1028 84.7531 33.0388 84.3775 33.2378L82.6467 34.1528C83.0213 33.9548 83.5229 34.0188 84.0277 34.2948C84.4485 34.5248 84.8726 34.9018 85.2277 35.3948C86.0662 36.5628 86.205 37.9418 85.5388 38.4768L75.8488 46.1968L77.5795 45.2808L87.2695 37.5618C87.9358 37.0258 87.7969 35.6468 86.9585 34.4788Z" fill="#1D1D1B"/>
<path d="M86.9585 34.4788C86.6033 33.9858 86.1803 33.6078 85.7584 33.3788C85.2536 33.1028 84.7531 33.0388 84.3775 33.2378L82.6467 34.1528C83.0213 33.9548 83.5229 34.0188 84.0277 34.2948C84.4485 34.5248 84.8726 34.9018 85.2277 35.3948C86.0662 36.5628 86.205 37.9418 85.5388 38.4768L75.8488 46.1968L77.5795 45.2808L87.2695 37.5618C87.9358 37.0258 87.7969 35.6468 86.9585 34.4788Z" stroke="#1D1D1B" stroke-width="0.464" stroke-miterlimit="10"/>
</g>
</g>
<defs>
<clipPath id="clip0_1_964">
<rect width="213.11" height="130" fill="white" transform="translate(0.660278)"/>
</clipPath>
</defs>
</svg>
