<svg width="214" height="130" viewBox="0 0 214 130" fill="none" xmlns="http://www.w3.org/2000/svg">
<g clip-path="url(#clip0_1_1075)">
<mask id="mask0_1_1075" style="mask-type:luminance" maskUnits="userSpaceOnUse" x="0" y="0" width="214" height="130">
<path d="M213.881 0H0.77063V130H213.881V0Z" fill="white"/>
</mask>
<g mask="url(#mask0_1_1075)">
<path d="M118.831 76.6165L120.958 75.9344L123.073 78.9064L125.2 78.2243L127.314 81.1962L129.443 80.5151L131.583 83.4713L133.71 82.7892L135.825 85.7611L137.953 85.079L140.066 88.05L142.195 87.3679L144.336 90.3241L146.465 89.6429L148.607 92.5991L150.733 91.9179L152.876 94.8741L155.004 94.192L157.118 97.164L159.246 96.4818L161.387 99.438L161.832 23.3832L159.704 24.0653L157.591 21.0933L155.462 21.7755L153.322 18.8193L151.193 19.5004L148.988 16.5067L146.861 17.1888L144.731 14.1911L142.603 14.8732L140.445 11.8893L138.317 12.5714L136.204 9.59945L134.076 10.2816L131.933 7.32542L129.806 8.00654L127.693 5.03654L125.564 5.71766L123.451 2.74667L121.323 3.42779L119.045 0.437988L118.831 76.6165Z" fill="white"/>
<path d="M118.831 76.6165L119.045 0.437988L121.323 3.42779L123.451 2.74568L125.564 5.71766L127.693 5.03555L129.806 8.00753L131.933 7.32542L134.076 10.2816L136.204 9.60044L138.317 12.5714L140.445 11.8893L142.603 14.8722L144.732 14.1911L146.861 17.1888L148.99 16.5067L151.193 19.5014L153.322 18.8193L155.462 21.7755L157.591 21.0933L159.704 24.0653L161.832 23.3832L161.387 99.438L159.246 96.4818L157.117 97.163L155.004 94.192L152.876 94.8731L150.733 91.9179L148.607 92.5991L146.465 89.6429L144.336 90.325L142.193 87.3689L140.066 88.05L137.953 85.079L135.825 85.7601L133.712 82.7892L131.583 83.4703L129.442 80.5141L127.314 81.1962L125.2 78.2243L123.071 78.9064L120.958 75.9354L118.831 76.6165Z" stroke="#1D1D1B" stroke-width="0.495" stroke-linejoin="round"/>
<path d="M125.252 70.3895L125.974 70.7775L125.973 63.0466L125.252 62.6595V70.3895Z" fill="#1D1D1B"/>
<path d="M141.28 78.9886L142.002 79.3767L142.001 71.6458L141.28 71.2587V78.9886Z" fill="#1D1D1B"/>
<path d="M148.485 82.8525L149.205 83.2386V75.5087L148.485 75.1226V82.8525Z" fill="#1D1D1B"/>
<path d="M126.692 71.1636L127.415 71.5507L127.414 63.8208L126.692 63.4347V71.1636Z" fill="#1D1D1B"/>
<path d="M142.723 79.7628L143.443 80.1499V72.419L142.723 72.0319V79.7628Z" fill="#1D1D1B"/>
<path d="M149.926 83.6277L150.646 84.0148V76.2849L149.926 75.8988V83.6277Z" fill="#1D1D1B"/>
<path d="M131.375 73.6762L131.736 73.8693V66.1403L131.375 65.9463V73.6762Z" fill="#1D1D1B"/>
<path d="M147.404 82.2743L147.764 82.4674V74.7385L147.404 74.5454V82.2743Z" fill="#1D1D1B"/>
<path d="M154.608 86.1384L154.968 86.3304L154.967 78.6025L154.608 78.4084V86.1384Z" fill="#1D1D1B"/>
<path d="M134.977 75.6077L135.699 75.9948L135.698 68.2639L134.977 67.8768V75.6077Z" fill="#1D1D1B"/>
<path d="M136.419 76.3799L137.139 76.767V69.0371L136.419 68.651V76.3799Z" fill="#1D1D1B"/>
<path d="M137.859 77.1521L138.58 77.5392V69.8093L137.859 69.4232V77.1521Z" fill="#1D1D1B"/>
<path d="M140.741 70.9695L138.94 70.0023V77.7312L140.741 78.6975V70.9695Z" fill="#1D1D1B"/>
<path d="M130.295 65.3652L128.134 64.2059V71.9349L130.295 73.0942V65.3652Z" fill="#1D1D1B"/>
<path d="M146.324 73.9643L144.163 72.8051V80.534L146.324 81.6933V73.9643Z" fill="#1D1D1B"/>
<path d="M153.527 77.8282L151.366 76.6689V84.3989L153.527 85.5591V77.8282Z" fill="#1D1D1B"/>
<path d="M134.257 67.4927L132.816 66.7195V74.4494L134.257 75.2216V67.4927Z" fill="#1D1D1B"/>
<path d="M147.042 64.6622V69.4875L156.553 74.59V69.7637L147.042 64.6622Z" fill="#EBEBE8"/>
<path d="M123.666 40.5558V42.6813L147.439 55.4335V53.309L123.666 40.5558Z" fill="#EBEBE8"/>
<path d="M151.4 55.4344V57.56L156.551 60.3231V58.1975L151.4 55.4344Z" fill="#EBEBE8"/>
<path d="M123.666 33.7545V35.881L139.91 44.595V42.4705L123.666 33.7545Z" fill="#EBEBE8"/>
<path d="M151.4 48.6342V50.7597L156.551 53.5228V51.3972L151.4 48.6342Z" fill="#EBEBE8"/>
<path d="M123.665 26.9531V29.0787L143.476 39.7063V37.5808L123.665 26.9531Z" fill="#EBEBE8"/>
<path d="M151.401 41.8339V43.9594L156.552 46.7225V44.597L151.401 41.8339Z" fill="#EBEBE8"/>
<path d="M123.667 43.9564V46.082L135.156 52.2467V50.1212L123.667 43.9564Z" fill="#EBEBE8"/>
<path d="M151.401 58.8341V60.9596L156.552 63.7227V61.5972L151.401 58.8341Z" fill="#EBEBE8"/>
<path d="M123.666 37.1561V39.2817L135.155 45.4464V43.3209L123.666 37.1561Z" fill="#EBEBE8"/>
<path d="M151.4 52.0328V54.1584L156.551 56.9215V54.7959L151.4 52.0328Z" fill="#EBEBE8"/>
<path d="M123.667 30.3538V32.4803L132.384 37.157V35.0305L123.667 30.3538Z" fill="#EBEBE8"/>
<path d="M151.4 45.2325V47.3581L156.551 50.1212V47.9956L151.4 45.2325Z" fill="#EBEBE8"/>
<path d="M133.569 19.939V24.19L147.042 31.417V27.167L133.569 19.939Z" fill="#EBEBE8"/>
<path d="M129.212 22.7051V24.8306L151.399 36.7334V34.6078L129.212 22.7051Z" fill="#EBEBE8"/>
<path d="M161.157 23.7036L88.7001 35.5836L119.068 2.41858" stroke="black" stroke-width="0.99" stroke-dasharray="2.97 5.94"/>
<path d="M159.559 96.9636L88.7001 35.5836L118.535 77.1636" stroke="black" stroke-width="0.99" stroke-dasharray="2.97 5.94"/>
<mask id="mask1_1_1075" style="mask-type:alpha" maskUnits="userSpaceOnUse" x="97" y="0" width="71" height="102">
<mask id="mask2_1_1075" style="mask-type:alpha" maskUnits="userSpaceOnUse" x="97" y="-3" width="71" height="105">
<path d="M99.7917 24.2505L120.511 -0.249512" stroke="white" stroke-width="4" stroke-linecap="round"/>
<path d="M105.442 32.5005L165.716 23.0005" stroke="white" stroke-width="4" stroke-linecap="round"/>
<path d="M106.788 50.2505L162.083 99.3754" stroke="white" stroke-width="4" stroke-linecap="round"/>
<path d="M104.366 58.0005C105.711 58.7505 119.165 77.0005 119.165 77.0005" stroke="white" stroke-width="4" stroke-linecap="round"/>
</mask>
<g mask="url(#mask2_1_1075)">
<path d="M213.881 0.000488281H0.771057V130H213.881V0.000488281Z" fill="white"/>
</g>
</mask>
<g mask="url(#mask1_1_1075)">
<path d="M161.157 23.7036L88.7001 35.5836L119.068 2.41858" stroke="black" stroke-width="0.99" stroke-dasharray="2.97 5.94"/>
<path d="M159.559 96.9636L88.7001 35.5836L118.535 77.1636" stroke="black" stroke-width="0.99" stroke-dasharray="2.97 5.94"/>
</g>
<path d="M98.7269 128.86L98.6981 128.845C98.647 128.829 98.6012 128.813 98.549 128.792L57.2461 106.848C54.9179 105.421 53.5252 102.998 53.5369 100.409L53.5657 5.00152C53.5774 4.8253 53.6062 4.66096 53.6456 4.50058C54.1731 0.9643 58.707 -1.01174 62.1754 0.847476L62.2329 0.879161C62.2734 0.900937 62.3128 0.910839 62.3533 0.932622L103.617 22.8918C105.903 24.2976 107.274 26.6786 107.262 29.2298L107.187 124.297C107.187 124.478 107.165 124.648 107.136 124.818C106.855 128.568 102.304 130.778 98.7269 128.86Z" fill="#FDFFD0"/>
<path d="M98.7269 128.861L98.6981 128.845C98.647 128.829 98.6012 128.814 98.549 128.793L57.2461 106.849C54.9179 105.422 53.5252 102.999 53.5369 100.41L53.5657 5.00155C53.5774 4.82533 53.6062 4.66099 53.6456 4.50061C54.1731 0.964328 58.707 -1.01072 62.1754 0.848501L62.2329 0.880178C62.2734 0.901962 62.3128 0.911864 62.3533 0.933639L103.617 22.8918C105.903 24.2976 107.274 26.6786 107.262 29.2298L107.187 124.298C107.187 124.479 107.165 124.648 107.136 124.818C106.855 128.568 102.304 130.779 98.7269 128.861Z" stroke="#1D1D1B" stroke-width="0.99"/>
<path d="M102.917 27.324C102.286 26.3073 101.404 25.4282 100.315 24.7569C84.8481 16.4667 74.736 10.9742 59.2696 2.6839C57.8535 1.94339 56.4885 1.83053 55.4229 2.36908C54.4885 2.83735 53.9099 3.75409 53.8289 4.88764V4.89358L53.8001 100.301C53.7895 102.937 55.1992 105.384 57.5668 106.837L98.6523 128.899C99.9651 129.443 101.444 129.374 102.527 128.725C103.432 128.181 103.931 127.308 103.937 126.27L104.012 31.2018C104.017 29.8059 103.634 28.4793 102.917 27.324Z" fill="#FDFFD0"/>
<path d="M102.917 27.324C102.286 26.3073 101.404 25.4282 100.315 24.7569C84.8481 16.4667 74.736 10.9742 59.2696 2.6839C57.8535 1.94339 56.4885 1.83053 55.4229 2.36908C54.4885 2.83735 53.9099 3.75409 53.8289 4.88764V4.89358L53.8001 100.301C53.7895 102.937 55.1992 105.384 57.5668 106.837L98.6523 128.899C99.9651 129.443 101.444 129.374 102.527 128.725C103.432 128.181 103.931 127.308 103.937 126.27L104.012 31.2018C104.017 29.8059 103.634 28.4793 102.917 27.324Z" stroke="#1D1D1B" stroke-width="0.495"/>
<path d="M97.9394 125.854L58.4129 105.208C56.7293 104.206 55.717 102.51 55.7234 100.692L55.7927 7.0855C55.912 5.50744 57.5114 4.55506 59.5978 5.60446L67.6533 9.81493L67.6469 11.0891C67.6405 12.582 68.6432 14.3204 69.8878 14.9709L87.7229 24.2937C88.9675 24.9441 89.9734 24.262 89.9798 22.7691L89.9851 21.5019L99.0966 26.2668C100.756 27.2528 101.746 28.9219 101.734 30.7128L101.627 124.085C101.633 125.78 99.5218 126.792 97.9394 125.854Z" fill="white"/>
<path d="M97.9394 125.854L58.4129 105.208C56.7293 104.206 55.717 102.51 55.7234 100.692L55.7927 7.0855C55.912 5.50744 57.5114 4.55506 59.5978 5.60446L67.6533 9.81493L67.6469 11.0891C67.6405 12.582 68.6432 14.3204 69.8878 14.9709L87.7229 24.2937C88.9675 24.9441 89.9734 24.262 89.9798 22.7691L89.9851 21.5019L99.0966 26.2668C100.756 27.2528 101.746 28.9219 101.734 30.7128L101.627 124.085C101.633 125.78 99.5218 126.792 97.9394 125.854Z" stroke="#1D1D1B" stroke-width="0.495" stroke-miterlimit="10"/>
<path d="M76.9013 96.4666C79.9584 98.1071 82.4379 102.096 82.4379 105.376C82.4379 108.656 79.9594 109.985 76.9013 108.346C73.8442 106.705 71.3668 102.717 71.3668 99.4356C71.3668 96.1558 73.8442 94.8262 76.9013 96.4666Z" fill="#FDFFD0"/>
<path d="M76.9013 96.4666C79.9584 98.1071 82.4379 102.096 82.4379 105.376C82.4379 108.656 79.9594 109.985 76.9013 108.346C73.8442 106.705 71.3668 102.717 71.3668 99.4356C71.3668 96.1558 73.8442 94.8262 76.9013 96.4666Z" stroke="#1D1D1B" stroke-width="0.495"/>
<path d="M76.9013 97.5556C79.3979 98.8951 81.4214 102.151 81.4214 104.83C81.4214 107.508 79.3979 108.593 76.9013 107.254C74.4047 105.914 72.3812 102.657 72.3812 99.9791C72.3812 97.3012 74.4047 96.2161 76.9013 97.5556Z" fill="white"/>
<path d="M76.9013 97.5556C79.3979 98.8951 81.4214 102.151 81.4214 104.83C81.4214 107.508 79.3979 108.593 76.9013 107.254C74.4047 105.914 72.3812 102.657 72.3812 99.9791C72.3812 97.3012 74.4047 96.2161 76.9013 97.5556Z" stroke="#1D1D1B" stroke-width="0.495"/>
<path d="M83.9702 19.2783L76.1309 14.9698C75.8794 14.8312 75.6727 14.9748 75.6727 15.2896C75.6727 15.6034 75.8731 15.9717 76.1256 16.1044L83.9648 20.4128C84.2163 20.5514 84.423 20.4069 84.423 20.0931C84.423 19.7793 84.2227 19.411 83.9702 19.2783Z" fill="white"/>
<path d="M83.9702 19.2783L76.1309 14.9698C75.8794 14.8312 75.6727 14.9748 75.6727 15.2896C75.6727 15.6034 75.8731 15.9717 76.1256 16.1044L83.9648 20.4129C84.2163 20.5514 84.423 20.4069 84.423 20.0931C84.423 19.7792 84.2227 19.411 83.9702 19.2783Z" stroke="#1D1D1B" stroke-width="0.495"/>
<path d="M73.9497 13.7066L73.9038 13.6799C73.6513 13.5413 73.4446 13.6858 73.4446 13.9997C73.4446 14.3135 73.646 14.6818 73.8985 14.8154L73.9443 14.8421C74.1958 14.9807 74.4025 14.8362 74.4025 14.5224C74.4025 14.2135 74.2022 13.8452 73.9497 13.7066Z" fill="white"/>
<path d="M73.9497 13.7066L73.9038 13.6799C73.6513 13.5413 73.4446 13.6858 73.4446 13.9997C73.4446 14.3135 73.646 14.6818 73.8985 14.8154L73.9443 14.8421C74.1958 14.9807 74.4025 14.8362 74.4025 14.5224C74.4025 14.2135 74.2022 13.8452 73.9497 13.7066Z" stroke="#1D1D1B" stroke-width="0.495"/>
<path d="M61.7566 79.9751L61.9249 20.4642L63.7034 22.8006L65.3656 22.268L67.0172 24.5886L68.6795 24.0569L70.33 26.3775L71.9923 25.8449L73.6662 28.1546L75.3285 27.6219L76.979 29.9435L78.6413 29.4109L80.3281 31.7413L81.9903 31.2087L83.6536 33.5501L85.317 33.0174L87.0378 35.3568L88.7001 34.8242L90.373 37.1339L92.0363 36.6012L93.6869 38.9228L95.3491 38.3902L95.0018 97.803L93.3288 95.4934L91.6655 96.026L90.015 93.7044L88.3527 94.2371L86.6798 91.9284L85.0165 92.461L83.3436 90.1513L81.6813 90.684L80.0084 88.3743L78.3461 88.9069L76.6945 86.5854L75.0323 87.118L73.3817 84.7974L71.7184 85.329L70.0455 83.0204L68.3832 83.553L66.7327 81.2314L65.0705 81.764L63.4188 79.4425L61.7566 79.9751Z" fill="white"/>
<path d="M61.7566 79.9751L61.9249 20.4642L63.7034 22.8006L65.3656 22.268L67.0172 24.5886L68.6795 24.0569L70.33 26.3775L71.9923 25.8449L73.6662 28.1546L75.3285 27.6219L76.979 29.9435L78.6413 29.4109L80.3281 31.7413L81.9903 31.2087L83.6536 33.5501L85.317 33.0174L87.0378 35.3568L88.7001 34.8242L90.373 37.1339L92.0363 36.6012L93.6869 38.9228L95.3491 38.3902L95.0018 97.803L93.3288 95.4934L91.6655 96.026L90.015 93.7044L88.3527 94.2371L86.6798 91.9284L85.0165 92.461L83.3436 90.1513L81.6813 90.6839L80.0084 88.3743L78.3461 88.9069L76.6945 86.5853L75.0323 87.118L73.3817 84.7974L71.7184 85.329L70.0455 83.0204L68.3832 83.553L66.7327 81.2314L65.0705 81.764L63.4188 79.4425L61.7566 79.9751Z" stroke="#1D1D1B" stroke-width="0.44649" stroke-linejoin="round"/>
<path d="M66.7743 75.1113L67.3369 75.4132V69.3752L66.7743 69.0732V75.1113Z" fill="#1D1D1B"/>
<path d="M79.2955 81.8294L79.8581 82.1313V76.0933L79.2955 75.7914V81.8294Z" fill="#1D1D1B"/>
<path d="M84.9227 84.8479L85.4853 85.1499V79.1119L84.9227 78.8099V84.8479Z" fill="#1D1D1B"/>
<path d="M67.8995 75.7151L68.4621 76.0171V69.9791L67.8995 69.6771V75.7151Z" fill="#1D1D1B"/>
<path d="M80.4208 82.4313L80.9834 82.7342V76.6952L80.4208 76.3943V82.4313Z" fill="#1D1D1B"/>
<path d="M86.049 85.4528L86.6116 85.7548V79.7167L86.049 79.4148V85.4528Z" fill="#1D1D1B"/>
<path d="M71.5576 77.6773L71.84 77.8288V71.7908L71.5565 71.6393L71.5576 77.6773Z" fill="#1D1D1B"/>
<path d="M84.0789 84.3945L84.3602 84.5459V78.5079L84.0789 78.3564V84.3945Z" fill="#1D1D1B"/>
<path d="M89.707 87.414L89.9883 87.5645V81.5265L89.707 81.375V87.414Z" fill="#1D1D1B"/>
<path d="M74.3717 79.1861L74.9343 79.488V73.45L74.3717 73.1481V79.1861Z" fill="#1D1D1B"/>
<path d="M75.4968 79.7909L76.0594 80.0929V74.0549L75.4968 73.7529V79.7909Z" fill="#1D1D1B"/>
<path d="M76.6221 80.3948L77.1847 80.6968V74.6588L76.6221 74.3568V80.3948Z" fill="#1D1D1B"/>
<path d="M78.8746 75.5627L77.4659 74.8093L77.467 80.8473L78.8746 81.6007V75.5627Z" fill="#1D1D1B"/>
<path d="M70.7125 71.1859L69.0247 70.28V76.318L70.7125 77.2239V71.1859Z" fill="#1D1D1B"/>
<path d="M83.2339 77.903L81.546 76.9972V83.0352L83.2339 83.9411V77.903Z" fill="#1D1D1B"/>
<path d="M88.862 80.9236L87.1742 80.0177V86.0557L88.862 86.9616V80.9236Z" fill="#1D1D1B"/>
<path d="M73.8091 72.8461L72.6838 72.2422V78.2812L73.8091 78.8851V72.8461Z" fill="#1D1D1B"/>
<path d="M83.7975 70.6365V74.4064L91.2265 78.3921V74.6222L83.7975 70.6365Z" fill="#EBEBE8"/>
<path d="M65.535 51.8057V53.4659L84.1065 63.4283V61.768L65.535 51.8057Z" fill="#EBEBE8"/>
<path d="M87.2009 63.4282V65.0885L91.2266 67.2476V65.5864L87.2009 63.4282Z" fill="#EBEBE8"/>
<path d="M65.535 46.4923V48.1525L78.2257 54.9608V53.2995L65.535 46.4923Z" fill="#EBEBE8"/>
<path d="M87.2009 58.1149V59.7751L91.2266 61.9343V60.2731L87.2009 58.1149Z" fill="#EBEBE8"/>
<path d="M65.5339 41.178V42.8382L81.01 51.1413V49.4811L65.5339 41.178Z" fill="#EBEBE8"/>
<path d="M87.2009 52.8026V54.4628L91.2266 56.622V54.9618L87.2009 52.8026Z" fill="#EBEBE8"/>
<path d="M65.535 54.4618V56.122L74.5112 60.9384V59.2781L65.535 54.4618Z" fill="#EBEBE8"/>
<path d="M87.2009 66.0845V67.7447L91.2266 69.9039V68.2427L87.2009 66.0845Z" fill="#EBEBE8"/>
<path d="M65.535 49.1484V50.8087L74.5112 55.625V53.9648L65.535 49.1484Z" fill="#EBEBE8"/>
<path d="M87.2009 60.7711V62.4313L91.2266 64.5905V62.9303L87.2009 60.7711Z" fill="#EBEBE8"/>
<path d="M65.5361 43.8342V45.4945L72.345 49.1485V47.4883L65.5361 43.8342Z" fill="#EBEBE8"/>
<path d="M87.2009 55.4578V57.118L91.2266 59.2772V57.617L87.2009 55.4578Z" fill="#EBEBE8"/>
<path d="M73.272 35.6984V39.0198L83.7953 44.6658V41.3443L73.272 35.6984Z" fill="#EBEBE8"/>
<path d="M69.8676 37.8575V39.5188L87.1998 48.8168V47.1556L69.8676 37.8575Z" fill="#EBEBE8"/>
<path d="M90.0751 53.9227L86.251 55.9877C85.7344 56.2657 85.4158 56.8577 85.4136 57.6987L85.3856 66.5417C85.3803 68.2357 86.6621 70.2987 88.2476 71.1487L113.551 84.3407C114.376 84.7827 115.123 84.8107 115.648 84.4967L119.419 82.4617C119.933 82.1827 120.254 81.5907 120.256 80.7507H120.258L120.285 71.9077C120.29 70.2137 119.009 68.1517 117.42 67.2997L92.119 54.1077C91.3215 53.6797 90.5982 53.6407 90.0751 53.9227Z" fill="#1D1D1B"/>
<path d="M90.0751 53.9227L86.251 55.9877C85.7344 56.2657 85.4158 56.8577 85.4136 57.6987L85.3856 66.5417C85.3803 68.2357 86.6621 70.2987 88.2476 71.1487L113.551 84.3407C114.376 84.7827 115.123 84.8107 115.648 84.4967L119.419 82.4617C119.933 82.1827 120.254 81.5907 120.256 80.7507H120.258L120.285 71.9077C120.29 70.2137 119.009 68.1517 117.42 67.2997L92.119 54.1077C91.3215 53.6797 90.5982 53.6407 90.0751 53.9227Z" stroke="#1D1D1B" stroke-miterlimit="10"/>
<path d="M88.2401 55.9367C86.6536 55.0867 85.362 55.7687 85.3566 57.4627L85.3286 66.3037C85.3232 67.9977 86.6062 70.0617 88.1916 70.9117L113.553 84.3407C115.138 85.1907 116.43 84.5087 116.435 82.8147L116.461 73.9737C116.466 72.2797 115.186 70.2157 113.599 69.3657L88.2401 55.9367Z" fill="#F4F8AC"/>
<path d="M88.2401 55.9367C86.6536 55.0867 85.362 55.7687 85.3566 57.4627L85.3286 66.3037C85.3232 67.9977 86.6062 70.0617 88.1916 70.9117L113.553 84.3407C115.138 85.1907 116.43 84.5087 116.435 82.8147L116.461 73.9737C116.466 72.2797 115.186 70.2157 113.599 69.3657L88.2401 55.9367Z" stroke="#1D1D1B" stroke-width="0.5" stroke-miterlimit="10"/>
<path d="M90.0924 62.0148L90.8232 62.4068L90.8243 67.3348L89.9891 66.8868V63.5548L88.9451 62.9948V62.3228C89.9364 62.8548 90.0009 62.6798 90.0924 62.0148ZM93.6453 63.8648C94.8723 64.5228 95.5246 65.9508 95.5246 67.3928C95.5246 68.8348 94.8723 69.5628 93.6453 68.9048C92.4183 68.2468 91.7661 66.8178 91.7661 65.3758C91.7661 63.9338 92.4183 63.2068 93.6453 63.8648ZM93.6453 68.0648C94.3438 68.4398 94.6893 67.9318 94.6893 66.9448C94.6893 65.9578 94.3438 65.0798 93.6453 64.7048C92.9468 64.3298 92.6013 64.8368 92.6013 65.8238C92.6013 66.8108 92.9468 67.6898 93.6453 68.0648ZM97.0981 68.0688C96.4846 67.7398 96.0477 66.9868 96.0477 66.3288C96.0477 65.6778 96.4846 65.3878 97.0981 65.7168C97.7052 66.0428 98.1357 66.7988 98.1357 67.4498C98.1357 68.1078 97.7052 68.3948 97.0981 68.0688ZM97.2488 70.7818L96.6224 70.4458L99.5446 67.0858L100.171 67.4218L97.2488 70.7818ZM97.0917 67.5048C97.3726 67.6558 97.5609 67.4638 97.5609 67.1418C97.5609 66.8198 97.3726 66.4248 97.0917 66.2738C96.8108 66.1238 96.6213 66.3148 96.6213 66.6368C96.6213 66.9588 96.8108 67.3548 97.0917 67.5048ZM99.7082 72.1568C99.0947 71.8278 98.6577 71.0758 98.6577 70.4178C98.6577 69.7668 99.0947 69.4758 99.7082 69.8048C100.315 70.1308 100.746 70.8868 100.746 71.5378C100.746 72.1958 100.315 72.4828 99.7082 72.1568ZM99.7017 71.5938C99.9826 71.7438 100.171 71.5518 100.171 71.2298C100.171 70.9078 99.9826 70.5118 99.7017 70.3618C99.4208 70.2108 99.2314 70.4038 99.2314 70.7258C99.2314 71.0478 99.4208 71.4438 99.7017 71.5938Z" fill="#1D1D1B"/>
<path d="M106.372 73.2398C106.175 72.9258 105.916 72.6818 105.657 72.5438C105.399 72.4058 105.139 72.3718 104.941 72.4758L104.171 72.8888C104.073 72.9068 103.971 72.9418 103.867 72.9968C103.471 73.2038 103.342 73.8008 103.736 74.4288L105.658 77.2718C105.854 77.5858 106.113 77.8288 106.372 77.9668C106.63 78.1048 106.888 78.1378 107.086 78.0338C107.137 78.0068 107.182 77.9718 107.22 77.9308L107.227 77.9248L113.498 73.3508C113.843 73.0718 114.038 72.6328 113.697 72.1648C113.513 71.9118 113.229 71.6528 113.01 71.5368C112.388 71.2038 111.738 71.7908 111.271 72.1688L107.524 74.8968L106.372 73.2398ZM105.395 73.6098C105.381 73.5868 105.366 73.5638 105.351 73.5418C105.394 73.5978 105.435 73.6578 105.474 73.7198L105.795 74.2298L105.395 73.6098Z" fill="#1D1D1B"/>
<path d="M106.372 73.2398C106.175 72.9258 105.916 72.6818 105.657 72.5438C105.399 72.4058 105.139 72.3718 104.941 72.4758L104.171 72.8888C104.073 72.9068 103.971 72.9418 103.867 72.9968C103.471 73.2038 103.342 73.8008 103.736 74.4288L105.658 77.2718C105.854 77.5858 106.113 77.8288 106.372 77.9668C106.63 78.1048 106.888 78.1378 107.086 78.0338C107.137 78.0068 107.182 77.9718 107.22 77.9308L107.227 77.9248L113.498 73.3508C113.843 73.0718 114.038 72.6328 113.697 72.1648C113.513 71.9118 113.229 71.6528 113.01 71.5368C112.388 71.2038 111.738 71.7908 111.271 72.1688L107.524 74.8968L106.372 73.2398ZM105.395 73.6098C105.381 73.5868 105.366 73.5638 105.351 73.5418C105.394 73.5978 105.435 73.6578 105.474 73.7198L105.795 74.2298L105.395 73.6098Z" stroke="#1D1D1B" stroke-width="0.5" stroke-miterlimit="10"/>
<path d="M112.466 71.9038C112.684 72.0208 112.904 72.2128 113.088 72.4648C113.523 73.0628 113.107 73.6238 112.762 73.9018L107.22 77.9308C107.182 77.9718 107.137 78.0068 107.086 78.0338C106.888 78.1378 106.629 78.1048 106.371 77.9668C106.112 77.8288 105.854 77.5858 105.658 77.2718L103.749 74.4648C103.355 73.8368 103.485 73.2398 103.881 73.0328C104.549 72.6818 105.091 73.1368 105.408 73.6458L106.793 75.5228L111.459 72.0828C111.659 71.9218 112.169 71.7448 112.466 71.9038Z" fill="white"/>
<path d="M112.466 71.9038C112.684 72.0208 112.904 72.2128 113.088 72.4648C113.523 73.0628 113.107 73.6238 112.762 73.9018L107.22 77.9308C107.182 77.9718 107.137 78.0068 107.086 78.0338C106.888 78.1378 106.629 78.1048 106.371 77.9668C106.112 77.8288 105.854 77.5858 105.658 77.2718L103.749 74.4648C103.355 73.8368 103.485 73.2398 103.881 73.0328C104.549 72.6818 105.091 73.1368 105.408 73.6458L106.793 75.5228L111.459 72.0828C111.659 71.9218 112.169 71.7448 112.466 71.9038Z" stroke="#1D1D1B" stroke-width="0.5" stroke-miterlimit="10"/>
</g>
</g>
<defs>
<clipPath id="clip0_1_1075">
<rect width="213.11" height="130" fill="white" transform="translate(0.77063)"/>
</clipPath>
</defs>
</svg>
