<svg width="215" height="130" viewBox="0 0 215 130" fill="none" xmlns="http://www.w3.org/2000/svg">
<g clip-path="url(#clip0_1_1292)">
<mask id="mask0_1_1292" style="mask-type:luminance" maskUnits="userSpaceOnUse" x="0" y="0" width="215" height="130">
<path d="M214.011 0H0.881104V130H214.011V0Z" fill="white"/>
</mask>
<g mask="url(#mask0_1_1292)">
<path d="M111.958 127.757L158.164 27.5021V103.419L111.958 127.757Z" fill="white"/>
<path d="M111.958 127.757L158.164 27.5021V103.419L111.958 127.757Z" stroke="#1D1D1B" stroke-width="1.03434" stroke-linejoin="round"/>
<path d="M69.0421 25.9167L92.3103 13.146L114.138 1.31708C114.138 1.31708 115.016 0.778553 115.826 0.778687C116.636 0.778822 117.499 1.21781 117.499 1.21781L155.058 20.4762L111.918 23.2048L69.0421 25.9167Z" fill="white"/>
<path d="M69.0421 25.9167L92.3103 13.146L114.138 1.31708C114.138 1.31708 115.016 0.778553 115.826 0.778687C116.636 0.778822 117.499 1.21781 117.499 1.21781L155.058 20.4762L111.918 23.2048L69.0421 25.9167Z" stroke="#1D1D1B" stroke-width="1.03434" stroke-linecap="round" stroke-linejoin="round"/>
<path d="M111.958 127.866L68.4325 104.87L67.8532 28.4887C67.8532 28.4887 67.7496 26.6695 69.3025 25.8541C70.8556 25.0387 111.958 127.866 111.958 127.866Z" fill="white"/>
<path d="M111.958 127.866L68.4325 104.87L67.8532 28.4887C67.8532 28.4887 67.7496 26.6695 69.3025 25.8541C70.8556 25.0387 111.958 127.866 111.958 127.866Z" stroke="#1D1D1B" stroke-width="1.03434" stroke-linecap="round" stroke-linejoin="round"/>
<path d="M154.989 20.443C155.768 20.8073 157.152 22.4211 157.557 23.4249C157.962 24.4286 158.26 26.8311 158.165 27.4397L154.989 20.443Z" fill="#F4F8AC"/>
<path d="M154.989 20.443C155.768 20.8073 157.152 22.4211 157.557 23.4249C157.962 24.4286 158.26 26.8311 158.165 27.4397L154.989 20.443Z" stroke="#1D1D1B" stroke-width="1.03434" stroke-linecap="round" stroke-linejoin="round"/>
<path d="M111.958 127.757L111.775 51.7789L158.165 27.5021V103.419L111.958 127.757Z" fill="white"/>
<path d="M111.958 127.757L111.775 51.7789L158.165 27.5021V103.419L111.958 127.757Z" stroke="#1D1D1B" stroke-width="0.51717" stroke-linejoin="round"/>
<path d="M108.983 45.267L69.0421 25.9167L92.3103 13.146L114.138 1.31708C114.138 1.31708 115.016 0.778553 115.826 0.778687C116.636 0.778822 117.499 1.21781 117.499 1.21781L155.058 20.4762L108.983 45.267Z" fill="white"/>
<path d="M108.983 45.267L69.0421 25.9167L92.3103 13.146L114.138 1.31708C114.138 1.31708 115.016 0.778553 115.826 0.778687C116.636 0.778822 117.499 1.21781 117.499 1.21781L155.058 20.4762L108.983 45.267Z" stroke="#1D1D1B" stroke-width="0.51717" stroke-linecap="round" stroke-linejoin="round"/>
<path d="M111.958 127.866L68.4325 104.87L67.8532 28.4887C67.8532 28.4887 67.7496 26.6695 69.3025 25.8541C70.8556 25.0387 72.2736 25.6659 72.2736 25.6659L106.59 43.6696C106.59 43.6696 109.094 45.0517 110.492 47.4963C111.89 49.9408 111.958 53.5812 111.958 53.5812V127.866Z" fill="white"/>
<path d="M111.958 127.866L68.4325 104.87L67.8532 28.4887C67.8532 28.4887 67.7496 26.6695 69.3025 25.8541C70.8556 25.0387 72.2736 25.6659 72.2736 25.6659L106.59 43.6696C106.59 43.6696 109.094 45.0517 110.492 47.4963C111.89 49.9408 111.958 53.5812 111.958 53.5812V127.866Z" stroke="#1D1D1B" stroke-width="0.51717" stroke-linecap="round" stroke-linejoin="round"/>
<path d="M110.813 48.2298C110.212 46.9898 109.727 46.0239 108.619 45.0736L154.989 20.443C155.768 20.8073 157.152 22.4211 157.557 23.4249C157.962 24.4286 158.26 26.8311 158.165 27.4397L111.812 51.7792C111.757 51.2724 111.438 49.521 110.83 48.2664L110.813 48.2298Z" fill="#FDFFD0"/>
<path d="M110.813 48.2298C110.212 46.9898 109.727 46.0239 108.619 45.0736L154.989 20.443C155.768 20.8073 157.152 22.4211 157.557 23.4249C157.962 24.4286 158.26 26.8311 158.165 27.4397L111.812 51.7792C111.757 51.2724 111.438 49.521 110.83 48.2664L110.813 48.2298Z" stroke="#1D1D1B" stroke-width="0.51717" stroke-linecap="round" stroke-linejoin="round"/>
<mask id="mask1_1_1292" style="mask-type:alpha" maskUnits="userSpaceOnUse" x="71" y="53" width="84" height="69">
<path d="M72.6552 53.6375L71.5345 80.4867L107.249 99.2425L107.069 121.667L154.64 99.5783V68.8839L72.6552 53.6375Z" fill="#F4F8AC"/>
</mask>
<g mask="url(#mask1_1_1292)">
<path d="M123.65 90.3374L106.846 99.4581L107.034 120.812L123.57 112.074L123.65 90.3374Z" fill="#FDFFD0"/>
<path d="M123.65 90.3374L106.846 99.4581L107.034 120.812L123.57 112.074L123.65 90.3374Z" stroke="#1D1D1B" stroke-width="0.51717" stroke-linejoin="round"/>
<path d="M72.4828 102.57V81.041L107.035 99.4586V120.812L72.4828 102.57Z" fill="#FDFFD0"/>
<path d="M72.4828 102.57V81.041L107.035 99.4586V120.812L72.4828 102.57Z" stroke="#1D1D1B" stroke-width="0.51717" stroke-linejoin="round"/>
<path d="M89.0864 72.217L74.4495 80.8851L107.034 98.5986L122.917 90.0699L89.0864 72.217Z" fill="white"/>
<path d="M89.0864 72.217L74.4495 80.8851L107.034 98.5986L122.917 90.0699L89.0864 72.217Z" stroke="#1D1D1B" stroke-width="0.51717" stroke-linejoin="round"/>
<path d="M82.6777 100.494V95.9296L92.496 101.188V105.752L82.6777 100.494Z" fill="#FDFFD0"/>
<path d="M82.6777 100.494V95.9296L92.496 101.188V105.752L82.6777 100.494Z" stroke="#1D1D1B" stroke-width="0.51717" stroke-linejoin="round"/>
<path d="M83.8108 100.139L82.6777 100.49L92.496 105.752V104.524L83.8108 100.139Z" fill="#1D1D1B"/>
<path d="M83.8108 100.139L82.6777 100.49L92.496 105.752V104.524L83.8108 100.139Z" stroke="#1D1D1B" stroke-width="0.51717" stroke-linejoin="round"/>
<path d="M82.6779 100.49V95.9296L83.8106 96.6312V100.139L82.6779 100.49Z" fill="#F4F8AC"/>
<path d="M82.6779 100.49V95.9296L83.8106 96.6312V100.139L82.6779 100.49Z" stroke="#1D1D1B" stroke-width="0.51717" stroke-linejoin="round"/>
<path d="M88.1536 71.7445L72.4827 81.0411L106.95 99.402L123.65 90.3374L121.762 89.4604L106.846 97.529L75.8811 80.6902L89.8528 72.6215L88.1536 71.7445Z" fill="#1D1D1B"/>
<path d="M88.1536 71.7445L72.4827 81.0411L106.95 99.402L123.65 90.3374L121.762 89.4604L106.846 97.529L75.8811 80.6902L89.8528 72.6215L88.1536 71.7445Z" stroke="#1D1D1B" stroke-width="0.51717" stroke-linejoin="round"/>
</g>
<path d="M72.4471 81.1416L107.069 99.5112L106.924 120.803" stroke="#1D1D1B" stroke-width="0.51717" stroke-linejoin="round"/>
<mask id="mask2_1_1292" style="mask-type:alpha" maskUnits="userSpaceOnUse" x="71" y="29" width="84" height="69">
<path d="M72.6552 29.0544L71.5345 55.9037L107.249 74.6595L107.069 97.0843L154.64 74.9953V44.3009L72.6552 29.0544Z" fill="#F4F8AC"/>
</mask>
<g mask="url(#mask2_1_1292)">
<path d="M123.65 65.7544L106.846 74.8751L107.034 96.2285L123.57 87.4909L123.65 65.7544Z" fill="#FDFFD0"/>
<path d="M123.65 65.7544L106.846 74.8751L107.034 96.2285L123.57 87.4909L123.65 65.7544Z" stroke="#1D1D1B" stroke-width="0.51717" stroke-linejoin="round"/>
<path d="M72.4828 77.9869V56.4581L107.035 74.8757V96.2291L72.4828 77.9869Z" fill="#FDFFD0"/>
<path d="M72.4828 77.9869V56.4581L107.035 74.8757V96.2291L72.4828 77.9869Z" stroke="#1D1D1B" stroke-width="0.51717" stroke-linejoin="round"/>
<path d="M89.0864 47.634L74.4495 56.3021L107.034 74.0156L122.917 65.4869L89.0864 47.634Z" fill="white"/>
<path d="M89.0864 47.634L74.4495 56.3021L107.034 74.0156L122.917 65.4869L89.0864 47.634Z" stroke="#1D1D1B" stroke-width="0.51717" stroke-linejoin="round"/>
<path d="M82.6777 75.9106V71.3466L92.496 76.6052V81.1692L82.6777 75.9106Z" fill="#FDFFD0"/>
<path d="M82.6777 75.9106V71.3466L92.496 76.6052V81.1692L82.6777 75.9106Z" stroke="#1D1D1B" stroke-width="0.51717" stroke-linejoin="round"/>
<path d="M83.8108 75.5562L82.6777 75.9069L92.496 81.1691V79.9412L83.8108 75.5562Z" fill="#1D1D1B"/>
<path d="M83.8108 75.5562L82.6777 75.9069L92.496 81.1691V79.9412L83.8108 75.5562Z" stroke="#1D1D1B" stroke-width="0.51717" stroke-linejoin="round"/>
<path d="M82.6779 75.9071V71.3466L83.8106 72.0482V75.5563L82.6779 75.9071Z" fill="#F4F8AC"/>
<path d="M82.6779 75.9071V71.3466L83.8106 72.0482V75.5563L82.6779 75.9071Z" stroke="#1D1D1B" stroke-width="0.51717" stroke-linejoin="round"/>
<path d="M88.1536 47.1615L72.4827 56.4581L106.95 74.819L123.65 65.7544L121.762 64.8773L106.846 72.946L75.8811 56.1072L89.8528 48.0385L88.1536 47.1615Z" fill="#1D1D1B"/>
<path d="M88.1536 47.1615L72.4827 56.4581L106.95 74.819L123.65 65.7544L121.762 64.8773L106.846 72.946L75.8811 56.1072L89.8528 48.0385L88.1536 47.1615Z" stroke="#1D1D1B" stroke-width="0.51717" stroke-linejoin="round"/>
</g>
<path d="M72.4471 56.5586L107.069 74.9282L106.924 96.2195" stroke="#1D1D1B" stroke-width="0.51717" stroke-linejoin="round"/>
<mask id="mask3_1_1292" style="mask-type:alpha" maskUnits="userSpaceOnUse" x="71" y="3" width="84" height="69">
<path d="M72.6552 3.80042L71.5345 30.6496L107.249 49.4055L107.069 71.8302L154.64 49.7413V19.0469L72.6552 3.80042Z" fill="#D5C8FB"/>
</mask>
<g mask="url(#mask3_1_1292)">
<path d="M123.65 40.5005L106.846 49.6212L107.034 70.9746L123.57 62.237L123.65 40.5005Z" fill="#FDFFD0"/>
<path d="M123.65 40.5005L106.846 49.6212L107.034 70.9746L123.57 62.237L123.65 40.5005Z" stroke="#1D1D1B" stroke-width="0.51717" stroke-linejoin="round"/>
<path d="M72.4828 52.733V31.2042L107.035 49.6218V70.9752L72.4828 52.733Z" fill="#FDFFD0"/>
<path d="M72.4828 52.733V31.2042L107.035 49.6218V70.9752L72.4828 52.733Z" stroke="#1D1D1B" stroke-width="0.51717" stroke-linejoin="round"/>
<path d="M89.0864 22.3801L74.4495 31.0482L107.034 48.7617L122.917 40.233L89.0864 22.3801Z" fill="white"/>
<path d="M89.0864 22.3801L74.4495 31.0482L107.034 48.7617L122.917 40.233L89.0864 22.3801Z" stroke="#1D1D1B" stroke-width="0.51717" stroke-linejoin="round"/>
<path d="M82.6777 50.6566V46.0927L92.496 51.3513V55.9153L82.6777 50.6566Z" fill="#FDFFD0"/>
<path d="M82.6777 50.6566V46.0927L92.496 51.3513V55.9153L82.6777 50.6566Z" stroke="#1D1D1B" stroke-width="0.51717" stroke-linejoin="round"/>
<path d="M83.8108 50.3022L82.6777 50.653L92.496 55.9152V54.6873L83.8108 50.3022Z" fill="#1D1D1B"/>
<path d="M83.8108 50.3022L82.6777 50.653L92.496 55.9152V54.6873L83.8108 50.3022Z" stroke="#1D1D1B" stroke-width="0.51717" stroke-linejoin="round"/>
<path d="M82.6779 50.6532V46.0927L83.8106 46.7943V50.3024L82.6779 50.6532Z" fill="#F4F8AC"/>
<path d="M82.6779 50.6532V46.0927L83.8106 46.7943V50.3024L82.6779 50.6532Z" stroke="#1D1D1B" stroke-width="0.51717" stroke-linejoin="round"/>
<path d="M88.1536 21.9076L72.4827 31.2042L106.95 49.5651L123.65 40.5005L121.762 39.6234L106.846 47.6921L75.8811 30.8533L89.8528 22.7846L88.1536 21.9076Z" fill="#1D1D1B"/>
<path d="M88.1536 21.9076L72.4827 31.2042L106.95 49.5651L123.65 40.5005L121.762 39.6234L106.846 47.6921L75.8811 30.8533L89.8528 22.7846L88.1536 21.9076Z" stroke="#1D1D1B" stroke-width="0.51717" stroke-linejoin="round"/>
</g>
<path d="M72.4471 31.3046L107.069 49.6742L106.924 70.9655" stroke="#1D1D1B" stroke-width="0.51717" stroke-linejoin="round"/>
<mask id="mask4_1_1292" style="mask-type:alpha" maskUnits="userSpaceOnUse" x="3" y="-39" width="203" height="137">
<path d="M36.9399 -38.5129L3.39392 -17.0201L15.8291 65.4585L27.3966 79.1601L76.4143 80.7049L107.068 97.3619L122.323 89.2349L204.091 47.4583L205.248 -36.095L36.9399 -38.5129Z" fill="#F4F8AC"/>
<path d="M36.9399 -38.5129L3.39392 -17.0201L15.8291 65.4585L27.3966 79.1601L76.4143 80.7049L107.068 97.3619L122.323 89.2349L204.091 47.4583L205.248 -36.095L36.9399 -38.5129Z" stroke="#1D1D1B" stroke-width="0.51717"/>
</mask>
<g mask="url(#mask4_1_1292)">
<path d="M86.6919 91.4082C86.3748 91.2372 86.0874 91.2217 85.8797 91.3341L84.9399 91.8434C85.1473 91.7308 85.4352 91.7469 85.7523 91.9173L97.9675 98.4962L98.9071 97.9871L86.6919 91.4082Z" fill="#F4F8AC"/>
<path d="M86.6905 91.4083C86.3733 91.2373 86.0861 91.2218 85.8782 91.3343L84.9386 91.8435C85.1458 91.7309 85.4337 91.7471 85.7508 91.9174L97.966 98.4963L98.9057 97.9872L86.6905 91.4083Z" fill="#1D1D1B"/>
<path d="M86.6905 91.4083C86.3733 91.2373 86.0861 91.2218 85.8782 91.3343L84.9386 91.8435C85.1458 91.7309 85.4337 91.7471 85.7508 91.9174L97.966 98.4963L98.9057 97.9872L86.6905 91.4083Z" stroke="#1D1D1B" stroke-width="0.51717" stroke-miterlimit="10"/>
<path d="M112.778 103.396L100.406 96.733C100.095 96.5651 99.804 96.5446 99.5935 96.659L98.6539 97.1681C98.8645 97.0538 99.155 97.0749 99.4663 97.2421L111.838 103.906C112.468 104.245 112.977 105.068 112.975 105.743L112.922 130.255C112.921 130.591 112.794 130.827 112.589 130.938L113.529 130.429C113.733 130.317 113.86 130.082 113.862 129.746L113.915 105.234C113.917 104.558 113.408 103.736 112.778 103.396Z" fill="#1D1D1B"/>
<path d="M112.778 103.396L100.406 96.733C100.095 96.5651 99.804 96.5446 99.5935 96.659L98.6539 97.1681C98.8645 97.0538 99.155 97.0749 99.4663 97.2421L111.838 103.906C112.468 104.245 112.977 105.068 112.975 105.743L112.922 130.255C112.921 130.591 112.794 130.827 112.589 130.938L113.529 130.429C113.733 130.317 113.86 130.082 113.862 129.746L113.915 105.234C113.917 104.558 113.408 103.736 112.778 103.396Z" stroke="#1D1D1B" stroke-width="0.51717" stroke-miterlimit="10"/>
<path d="M111.839 103.906C112.469 104.246 112.978 105.068 112.976 105.744L112.97 130.238C112.968 130.914 112.456 131.186 111.825 130.847L85.7436 116.799C85.1132 116.46 84.6041 115.637 84.6061 114.962L84.6062 92.5268C84.6083 91.8511 85.1207 91.5788 85.751 91.9183L97.9662 98.4972L98.3907 97.4722C98.5553 97.0748 98.9857 96.9829 99.467 97.2421L111.839 103.906Z" fill="#F4F8AC"/>
<path d="M111.839 103.906C112.469 104.246 112.978 105.068 112.976 105.744L112.97 130.238C112.968 130.914 112.456 131.186 111.825 130.847L85.7436 116.799C85.1132 116.46 84.6041 115.637 84.6061 114.962L84.6062 92.5268C84.6083 91.8511 85.1207 91.5788 85.751 91.9183L97.9662 98.4972L98.3907 97.4722C98.5553 97.0748 98.9857 96.9829 99.467 97.2421L111.839 103.906Z" stroke="#1D1D1B" stroke-width="0.51717" stroke-miterlimit="10"/>
</g>
<mask id="mask5_1_1292" style="mask-type:alpha" maskUnits="userSpaceOnUse" x="2" y="-39" width="204" height="137">
<path d="M36.7956 -38.5129L3.24963 -17.0201L15.6848 65.4585L27.2524 79.1601L76.27 80.7049L106.924 97.3619L122.179 89.2349L203.947 47.4583L205.104 -36.095L36.7956 -38.5129Z" fill="#F4F8AC"/>
<path d="M36.7956 -38.5129L3.24963 -17.0201L15.6848 65.4585L27.2524 79.1601L76.27 80.7049L106.924 97.3619L122.179 89.2349L203.947 47.4583L205.104 -36.095L36.7956 -38.5129Z" stroke="#1D1D1B" stroke-width="0.51717"/>
</mask>
<g mask="url(#mask5_1_1292)">
<path d="M65.8157 97.0846C65.4984 96.9136 65.2112 96.8981 65.0033 97.0105L64.0636 97.5198C64.2708 97.4072 64.5588 97.4233 64.8761 97.5937L77.0911 104.173L78.0307 103.664L65.8157 97.0846Z" fill="#1D1D1B"/>
<path d="M65.8157 97.0846C65.4984 96.9136 65.2112 96.8981 65.0033 97.0105L64.0636 97.5198C64.2708 97.4072 64.5588 97.4233 64.8761 97.5937L77.0911 104.173L78.0307 103.664L65.8157 97.0846Z" stroke="#1D1D1B" stroke-width="0.51717" stroke-miterlimit="10"/>
<path d="M90.9639 109.582C91.5943 109.921 92.1035 110.744 92.1014 111.419L92.0481 134.781C92.0461 135.456 91.5336 135.729 90.9033 135.389L64.8218 121.342C64.1913 121.002 63.6821 120.179 63.6841 119.504L63.7314 98.2022C63.7334 97.5265 64.2458 97.2542 64.8763 97.5937L77.0915 104.173L77.5159 103.148C77.6806 102.75 78.111 102.658 78.5921 102.917L90.9639 109.582Z" fill="#F4F8AC"/>
<path d="M90.9639 109.582C91.5943 109.921 92.1035 110.744 92.1014 111.419L92.0481 134.781C92.0461 135.456 91.5336 135.729 90.9033 135.389L64.8218 121.342C64.1913 121.002 63.6821 120.179 63.6841 119.504L63.7314 98.2022C63.7334 97.5265 64.2458 97.2542 64.8763 97.5937L77.0915 104.173L77.5159 103.148C77.6806 102.75 78.111 102.658 78.5921 102.917L90.9639 109.582Z" stroke="#1D1D1B" stroke-width="0.51717" stroke-miterlimit="10"/>
</g>
</g>
</g>
<defs>
<clipPath id="clip0_1_1292">
<rect width="213.13" height="130" fill="white" transform="translate(0.881104)"/>
</clipPath>
</defs>
</svg>
